<?xml version="1.0" encoding="utf-8"?>
<!-- Generator: Adobe Illustrator 24.2.1, SVG Export Plug-In . SVG Version: 6.00 Build 0)  -->
<svg version="1.1" xmlns="http://www.w3.org/2000/svg" xmlns:xlink="http://www.w3.org/1999/xlink" x="0px" y="0px"
	 viewBox="0 0 750 500" style="enable-background:new 0 0 750 500;" xml:space="preserve">
<style type="text/css">
	.st0{fill:url(#SVGID_1_);}
	.st1{opacity:0.39;clip-path:url(#SVGID_3_);}
	.st2{clip-path:url(#SVGID_5_);}
	.st3{clip-path:url(#SVGID_9_);}
	.st4{clip-path:url(#SVGID_13_);}
	.st5{fill:url(#SVGID_16_);}
	.st6{fill:url(#SVGID_17_);}
	.st7{fill:url(#SVGID_18_);}
	.st8{fill:url(#SVGID_19_);}
	.st9{clip-path:url(#SVGID_21_);}
	.st10{fill:url(#SVGID_24_);}
	.st11{clip-path:url(#SVGID_27_);}
	.st12{fill:url(#SVGID_31_);}
	.st13{fill:url(#SVGID_32_);}
	.st14{fill:url(#SVGID_33_);}
	.st15{fill:url(#SVGID_34_);}
	.st16{fill:url(#SVGID_35_);}
	.st17{clip-path:url(#SVGID_38_);}
	.st18{clip-path:url(#SVGID_43_);}
	.st19{clip-path:url(#SVGID_47_);}
	.st20{clip-path:url(#SVGID_51_);}
	.st21{clip-path:url(#SVGID_3_);}
	.st22{fill:#FFFFFF;}
	.st23{fill:url(#SVGID_54_);}
	.st24{fill:url(#SVGID_55_);}
	.st25{fill:url(#SVGID_56_);}
	.st26{fill:url(#SVGID_57_);}
	.st27{fill:url(#SVGID_58_);}
	.st28{fill:url(#SVGID_59_);}
	.st29{fill:url(#SVGID_60_);}
	.st30{fill:url(#SVGID_61_);}
	.st31{fill:url(#SVGID_62_);}
	.st32{fill:url(#SVGID_63_);}
	.st33{fill:url(#SVGID_64_);}
	.st34{fill:url(#SVGID_65_);}
	.st35{fill:url(#SVGID_66_);}
	.st36{fill:url(#SVGID_67_);}
	.st37{fill:url(#SVGID_68_);}
	.st38{fill:url(#SVGID_69_);}
	.st39{fill:url(#SVGID_70_);}
	.st40{fill:url(#SVGID_71_);}
	.st41{fill:url(#SVGID_72_);}
	.st42{fill:url(#SVGID_73_);}
	.st43{fill:url(#SVGID_74_);}
	.st44{fill:url(#SVGID_75_);}
	.st45{fill:url(#SVGID_76_);}
	.st46{fill:url(#SVGID_77_);}
	.st47{fill:url(#SVGID_78_);}
	.st48{fill:url(#SVGID_79_);}
	.st49{fill:url(#SVGID_80_);}
	.st50{fill:url(#SVGID_81_);}
	.st51{fill:url(#SVGID_82_);}
	.st52{fill:url(#SVGID_83_);}
	.st53{fill:url(#SVGID_84_);}
	.st54{fill:url(#SVGID_85_);}
	.st55{fill:url(#SVGID_86_);}
	.st56{fill:url(#SVGID_87_);}
	.st57{fill:url(#SVGID_88_);}
	.st58{fill:url(#SVGID_89_);}
	.st59{fill:url(#SVGID_90_);}
	.st60{fill:url(#SVGID_91_);}
	.st61{fill:url(#SVGID_92_);}
	.st62{fill:url(#SVGID_93_);}
	.st63{fill:url(#SVGID_94_);}
	.st64{fill:url(#SVGID_95_);}
	.st65{fill:url(#SVGID_96_);}
	.st66{fill:url(#SVGID_97_);}
	.st67{fill:url(#SVGID_98_);}
	.st68{fill:url(#SVGID_99_);}
	.st69{fill:url(#SVGID_100_);}
	.st70{fill:url(#SVGID_101_);}
	.st71{fill:url(#SVGID_102_);}
	.st72{fill:url(#SVGID_103_);}
	.st73{fill:url(#SVGID_104_);}
	.st74{fill:url(#SVGID_105_);}
	.st75{fill:url(#SVGID_106_);}
	.st76{fill:url(#SVGID_107_);}
	.st77{fill:url(#SVGID_108_);}
	.st78{fill:url(#SVGID_109_);}
	.st79{fill:url(#SVGID_110_);}
	.st80{fill:url(#SVGID_111_);}
	.st81{fill:url(#SVGID_112_);}
	.st82{fill:url(#SVGID_113_);}
	.st83{fill:url(#SVGID_114_);}
	.st84{fill:url(#SVGID_115_);}
	.st85{fill:url(#SVGID_116_);}
	.st86{fill:url(#SVGID_117_);}
	.st87{fill:url(#SVGID_118_);}
	.st88{fill:url(#SVGID_119_);}
	.st89{fill:url(#SVGID_120_);}
	.st90{fill:url(#SVGID_121_);}
	.st91{fill:url(#SVGID_122_);}
	.st92{fill:url(#SVGID_123_);}
	.st93{fill:url(#SVGID_124_);}
	.st94{fill:url(#SVGID_125_);}
	.st95{fill:url(#SVGID_126_);}
	.st96{fill:url(#SVGID_127_);}
	.st97{fill:url(#SVGID_128_);}
	.st98{fill:url(#SVGID_129_);}
	.st99{fill:url(#SVGID_130_);}
	.st100{fill:url(#SVGID_131_);}
	.st101{fill:url(#SVGID_132_);}
	.st102{fill:url(#SVGID_133_);}
	.st103{fill:url(#SVGID_134_);}
	.st104{fill:url(#SVGID_135_);}
	.st105{fill:url(#SVGID_136_);}
	.st106{fill:url(#SVGID_137_);}
	.st107{fill:url(#SVGID_138_);}
	.st108{fill:url(#SVGID_139_);}
	.st109{fill:url(#SVGID_140_);}
	.st110{fill:url(#SVGID_141_);}
	.st111{fill:url(#SVGID_142_);}
	.st112{fill:url(#SVGID_143_);}
	.st113{opacity:0.43;clip-path:url(#SVGID_3_);fill:none;stroke:#FFFFFF;stroke-width:2.9142;stroke-miterlimit:10;}
	.st114{opacity:0.31;}
	.st115{fill:url(#SVGID_144_);}
	.st116{fill:url(#SVGID_145_);}
	.st117{opacity:0.15;}
	.st118{fill:#350E21;}
	.st119{fill:#EC1E79;}
	.st120{font-family:'Montserrat-BlackItalic';}
	.st121{font-size:22.1563px;}
	.st122{fill:#161548;}
	.st123{font-size:90.1078px;}
	.st124{font-family:'Montserrat-Bold';}
	.st125{font-size:42.6381px;}
	.st126{opacity:0.58;clip-path:url(#SVGID_3_);fill:url(#SVGID_146_);}
	.st127{opacity:0.58;clip-path:url(#SVGID_3_);fill:url(#SVGID_147_);}
	.st128{opacity:0.58;clip-path:url(#SVGID_3_);fill:url(#SVGID_148_);}
	.st129{opacity:0.58;clip-path:url(#SVGID_3_);fill:url(#SVGID_149_);}
</style>
<g id="BACKGROUND">
	<linearGradient id="SVGID_1_" gradientUnits="userSpaceOnUse" x1="203.3847" y1="-36.6029" x2="568.9238" y2="573.8589">
		<stop  offset="0" style="stop-color:#1E3668"/>
		<stop  offset="0.505" style="stop-color:#161548"/>
		<stop  offset="1" style="stop-color:#0D0D19"/>
	</linearGradient>
	<rect class="st0" width="750" height="500"/>
</g>
<g id="OBJECTS">
	<g>
		<defs>
			<rect id="SVGID_2_" width="750" height="500"/>
		</defs>
		<clipPath id="SVGID_3_">
			<use xlink:href="#SVGID_2_"  style="overflow:visible;"/>
		</clipPath>
		<g class="st1">
			
				<image style="overflow:visible;opacity:0.15;" width="605" height="603" xlink:href="B5ADB35F.png"  transform="matrix(1 0 0 1 83.7578 -40.8354)">
			</image>
			<g>
				<g>
					<g>
						<defs>
							<path id="SVGID_4_" d="M615.61,341.11c-0.01,0.04-0.02,0.09-0.04,0.13C615.59,341.19,615.6,341.15,615.61,341.11
								C615.61,341.11,615.61,341.11,615.61,341.11"/>
						</defs>
						<clipPath id="SVGID_5_">
							<use xlink:href="#SVGID_4_"  style="overflow:visible;"/>
						</clipPath>
						<g class="st2">
							<defs>
								<path id="SVGID_6_" d="M617.27,344.5c-1.08,0.43-2.18,0.85-3.3,1.27c0.32-2.03,0.63-4.07,0.92-6.12
									c1.12-0.42,2.22-0.85,3.31-1.27C617.91,340.43,617.6,342.47,617.27,344.5"/>
							</defs>
							<clipPath id="SVGID_7_">
								<use xlink:href="#SVGID_6_"  style="overflow:visible;"/>
							</clipPath>
						</g>
					</g>
					<g>
						<g>
							<defs>
								<path id="SVGID_8_" d="M407.51,496.72c-0.66,2.87-2,6.11-2.68,7.49c-2.9,5.79-7.21,10.7-10.3,16.37
									c-0.53,0.96-1.5,2.76-1.6,4.82c0,0.03-0.03,0.66-0.32,1.04c-0.54,0.72-1.46,0.75-1.63,0.74c-0.52-0.01-7.75,1.99-7.82,2.02
									c-0.92-1.14-2.15-2.66-3.07-3.8c0.11-2.2-0.51-4.42,0.21-6.6c0.15-0.46,0.15-0.46,2.47-1.49c2.91-1.3,3.24-11.14,3.16-11.53
									c-0.69-3.16-0.69-3.16-0.43-3.76c0.13-0.29,0.71-0.52,1.57-0.39c0.24,0.04,0.57-0.12,0.8-0.22
									c15.4-6.63,15.4-6.63,18.73-13.27l1.43,5.8C407.86,494.77,407.7,495.89,407.51,496.72"/>
							</defs>
							<clipPath id="SVGID_9_">
								<use xlink:href="#SVGID_8_"  style="overflow:visible;"/>
							</clipPath>
							<g class="st3">
								<defs>
									<path id="SVGID_10_" d="M403.31,529.86c-8.23,0.35-16.48,0.56-24.7,0.62c0.68-11.33,1.28-25.6,1.8-42.48
										c10.25-0.08,20.52-0.33,30.77-0.77C408.95,504.15,406.3,518.47,403.31,529.86"/>
								</defs>
								<clipPath id="SVGID_11_">
									<use xlink:href="#SVGID_10_"  style="overflow:visible;"/>
								</clipPath>
							</g>
						</g>
					</g>
					<g>
						<defs>
							<path id="SVGID_12_" d="M241.76-0.67c-5.07,2.63-5.07,2.63-5.59,2.92c-5.63,3.12-5.63,3.12-5.73,3.11
								c-0.02-0.06-0.05-0.14-0.07-0.21c-0.58-0.08-1.12,0.27-1.71,0.16c0.01-0.04,3.49-3.35,3.52-3.38
								c0.96-0.81,2.14-1.57,2.97-2.08l13.4-7.91c0.04-0.02,4.44-2.12,5.04-1.83c-0.07,0.13-0.21,0.28-0.32,0.38
								c-0.88,0.67-2.02,1.35-2.83,1.8c-2.33,1.3-9.41,5.24-9.83,6.45c0.08,0.09,0.08,0.09,2.28-0.18
								C242.79-1.2,242.79-1.2,241.76-0.67"/>
						</defs>
						<clipPath id="SVGID_13_">
							<use xlink:href="#SVGID_12_"  style="overflow:visible;"/>
						</clipPath>
						<g class="st4">
							<defs>
								<path id="SVGID_14_" d="M224.88,9.06c2.22-3.44,5.82-6.79,10.71-10c7.57-4.52,15.41-8.62,23.5-12.27
									c-4.15,2.72-7.21,5.57-9.09,8.48C241.35-0.55,232.97,4.05,224.88,9.06"/>
							</defs>
							<clipPath id="SVGID_15_">
								<use xlink:href="#SVGID_14_"  style="overflow:visible;"/>
							</clipPath>
						</g>
					</g>
				</g>
				<g>
					<g>
						<linearGradient id="SVGID_16_" gradientUnits="userSpaceOnUse" x1="256.6425" y1="-153.3735" x2="822.5001" y2="340.0103">
							<stop  offset="0" style="stop-color:#2F55A3"/>
							<stop  offset="0.505" style="stop-color:#282683"/>
							<stop  offset="1" style="stop-color:#2C2C54"/>
						</linearGradient>
						<path class="st5" d="M672.84,205.5c0.45,3.05,0.9,6.08,1.32,9.19C673.74,211.46,673.29,208.4,672.84,205.5z"/>
						<linearGradient id="SVGID_17_" gradientUnits="userSpaceOnUse" x1="233.2043" y1="-126.4961" x2="799.0646" y2="366.8901">
							<stop  offset="0" style="stop-color:#2F55A3"/>
							<stop  offset="0.505" style="stop-color:#282683"/>
							<stop  offset="1" style="stop-color:#2C2C54"/>
						</linearGradient>
						<path class="st6" d="M676.79,254.69c-0.07,3.7-0.15,7.28-0.28,10.93C676.74,261.26,676.79,257.77,676.79,254.69z"/>
						<linearGradient id="SVGID_18_" gradientUnits="userSpaceOnUse" x1="108.3079" y1="16.7499" x2="674.167" y2="510.1351">
							<stop  offset="0" style="stop-color:#2F55A3"/>
							<stop  offset="0.505" style="stop-color:#282683"/>
							<stop  offset="1" style="stop-color:#2C2C54"/>
						</linearGradient>
						<path class="st7" d="M676.8,253.94c0-0.39-0.01-0.75-0.01-1.13c0,0.25,0,0.52,0.01,0.78c0-0.44,0-0.88,0-1.31
							c-0.01,0.16-0.01,0.34-0.01,0.52c0-0.09,0-0.18,0-0.28c0-0.08,0.01-0.17,0.01-0.25c0.28-7.23-0.18-16.93-1.1-24.11l-0.04-0.32
							c-0.42-4.68-0.94-8.99-1.5-13.15c0.41,3.19,0.78,6.53,1.1,10.02l-2.51-19.81c0.03,0.2,0.06,0.4,0.1,0.6
							c-0.05-0.31-0.09-0.62-0.14-0.94c-0.05-0.34-0.15-0.78-0.19-1.12c0.03,0.17,0.05,0.34,0.08,0.51
							c-1.61-9.28-3.37-17.17-5.1-23.92c-0.05-0.21-0.1-0.42-0.16-0.63c-0.04-0.15-0.08-0.32-0.12-0.47
							c-0.04-0.15-0.08-0.3-0.12-0.44c-0.22-0.84-0.45-1.7-0.69-2.57c-0.02-0.09-0.05-0.18-0.07-0.27
							c-0.57-2.06-1.18-4.19-1.82-6.37c-9.76-34.93-26.91-68.23-49.99-97.5c-15.54-20.35-34.3-38.85-56.21-54.52
							c-3.41-2.58-7.25-5.23-11.22-7.85c-1.01-0.72-2.06-1.47-3.18-2.26l-8.34-5.12c2.15,1.29,4.25,2.54,6.12,3.66
							c-4.44-2.7-10.32-6.36-14.8-9c-0.97-0.55-1.95-1.09-2.93-1.63c-0.01-0.01-0.02-0.01-0.04-0.02c-0.06-0.03-0.12-0.07-0.18-0.1
							c-0.41-0.22-0.82-0.45-1.23-0.67c-0.27-0.15-0.54-0.29-0.78-0.42c0.17,0.09,0.33,0.18,0.5,0.27v0
							c-0.17-0.09-0.33-0.18-0.5-0.27c-0.03-0.02-0.07-0.03-0.1-0.05c-0.34-0.18-0.69-0.36-1.03-0.54
							c-0.67-0.35-1.34-0.71-2.02-1.06c0,0,0,0,0,0c0.68,0.35,1.35,0.7,2.02,1.06c-0.21-0.11-0.41-0.21-0.62-0.32
							c-0.45-0.24-0.93-0.49-1.4-0.74c-0.54-0.28-1.09-0.55-1.63-0.82c0.54,0.27,1.09,0.54,1.63,0.82
							c-3.88-2.04-8.39-4.32-13.54-6.72c-0.36-0.18-0.74-0.37-1.1-0.54l-0.99-0.42c-4.23-1.93-8.86-3.92-13.88-5.9l-0.25-0.11
							c-0.23-0.09-0.47-0.18-0.71-0.27c-13.17-5.15-28.96-10.22-47.26-14.01l-0.1-0.02c-0.68-0.14-1.42-0.29-2.19-0.44
							c-2-0.4-4.02-0.78-6.07-1.15c-0.14-0.03-0.28-0.05-0.41-0.08l2.14,0.38l-2.25-0.4l-0.06-0.01l-0.08-0.01
							c-0.02,0-0.03,0-0.05-0.01c-2.32-0.41-4.69-0.78-7.09-1.14l-0.98-0.16c-0.56-0.08-1.17-0.17-1.8-0.25
							c-1.89-0.27-3.8-0.52-5.74-0.76c-2.58-0.31-5.17-0.59-7.76-0.84c-1.69-0.16-3.73-0.32-5.47-0.46
							c-2.19-0.17-4.38-0.31-6.57-0.43l-1.02-0.06c-0.06,0-0.13-0.01-0.19-0.01c-1.28-0.07-2.57-0.11-3.85-0.16
							c-0.87-0.03-1.72-0.06-2.47-0.09l-0.42-0.01c-1.47-0.04-2.94-0.07-4.4-0.09c-0.58-0.01-1.15-0.02-1.66-0.03
							c-0.43,0-0.9,0-1.37,0c-1.23,0-2.45,0-3.68,0.02c-0.51,0-1,0.01-1.45,0.01l-1.24,0.03c-1.41,0.03-2.83,0.06-4.24,0.11
							l-1.08,0.03c-0.86,0.03-1.84,0.08-2.84,0.13c-0.93,0.04-1.85,0.09-2.78,0.14c-0.42,0.02-0.83,0.04-1.21,0.06l-2.43,0.17
							c-1.13,0.08-2.25,0.15-3.38,0.24L355.48-41c-1.3,0.11-2.83,0.26-4.34,0.4c-0.48,0.05-0.95,0.09-1.43,0.14
							c-0.64,0.06-1.26,0.12-1.83,0.18l-3.64,0.44c-0.59,0.07-1.18,0.14-1.77,0.21l-2.37,0.29c-0.9,0.14-1.79,0.27-2.67,0.41
							c-0.41,0.06-0.82,0.11-1.22,0.17c0.73-0.12,1.47-0.23,2.22-0.35l-4.64,0.69c-0.68,0.12-1.35,0.25-2.03,0.37
							c-6.27,1.03-12.52,2.26-18.74,3.7c-2.09,0.47-4.1,0.96-6.06,1.45c-0.04,0.01-0.09,0.02-0.13,0.03
							c-1.14,0.29-2.26,0.58-3.37,0.88c-0.97,0.26-1.93,0.52-2.87,0.78c-0.28,0.08-0.56,0.15-0.84,0.22
							c-2.58,0.72-5.09,1.46-7.57,2.22c0.28-0.09,0.56-0.18,0.83-0.26l-0.35,0.1c-0.19,0.06-0.38,0.13-0.57,0.19
							c-4.58,1.41-8.97,2.88-13.19,4.39c-0.36,0.12-0.73,0.25-1.07,0.36l-1.1,0.43c-3.04,1.12-5.99,2.26-8.84,3.42l-0.95,0.37
							c-6.53,2.71-9.77,4.09-14.48,6.41c-6.52,3.1-12.38,6.19-17.63,9.14c-0.24,0.12-0.46,0.24-0.71,0.37L233.4-3.4
							c-4.65,2.65-8.78,5.18-12.4,7.48l-1.91,1.15c-0.77,0.52-1.58,1.07-2.4,1.62c-2.08,1.36-3.96,2.62-5.62,3.73
							c-5.35,3.58-10.8,7.71-15.79,11.73c-0.14,0.11-0.3,0.22-0.44,0.33l-0.62,0.53c-5.47,4.44-10.31,8.67-13.76,11.76l-1.18,1.01
							c-0.43,0.4-0.88,0.83-1.32,1.25c-1.39,1.27-2.33,2.15-2.7,2.5c-3.59,3.38-7.46,7.37-11.33,11.57
							c-1.31,1.35-2.58,2.65-3.76,3.86l-6.14,7.27c-2.81,3.26-5.5,6.45-7.91,9.36c-4.81,5.82-9.92,13.07-14.8,20.67
							c-0.09,0.12-0.18,0.26-0.27,0.38l-0.35,0.58c-3.64,5.72-7.15,11.6-10.3,17.2l-0.88,1.48c-0.46,0.84-0.93,1.73-1.4,2.64
							c-4.45,8.15-7.98,15.4-9.86,20.18l-8.42,21.34c-1.26,3.63-2.56,7.92-3.82,12.22c-1.36,4.24-2.58,8.37-3.55,12.18
							c-1.16,4.58-2.23,9.7-3.2,15.02l-1.69,7.94c-1.29,7.67-2.32,18.01-3.27,25.73c-1.59,12.93-1.39,30.43-0.43,43.42
							c0.36,4.83,0.94,10.18,1.67,15.69c0.25,2.81,0.52,5.53,0.78,8.07l4.29,23.18c0.13,0.57,0.28,1.17,0.43,1.77
							c0.03,0.17,0.07,0.35,0.1,0.52c0.84,4.25,2.92,12.16,6.06,21.84c0.05,0.19,0.11,0.4,0.17,0.59l0.24,0.67
							c2.05,6.24,4.53,13.15,7.39,20.26l0.27,0.73c0.2,0.48,0.43,1,0.64,1.5c2.99,7.28,6.38,14.7,10.11,21.76
							c6.19,11.73,8.14,15.4,14.2,24.41c2.98,4.48,6.37,9.31,9.38,13.63c0.73,1.06,1.49,2.15,2.3,3.31
							c4.84,6.97,12.11,15.71,17.99,21.83c2.51,2.61,5.27,5.46,8.17,8.38c2.44,2.5,4.82,4.92,6.94,7.09l2.82,2.5
							c4.51,4.29,9.04,8.36,13.21,11.71c20.66,16.54,31.6,22.89,42.19,29.03c11.08,6.43,29.16,15.67,52.81,23.52
							c0.09,0.03,0.18,0.07,0.27,0.1l0.2,0.06c3.73,1.23,7.6,2.42,11.59,3.57l0.43,0.13c0.54,0.15,1.11,0.31,1.7,0.47
							c38.56,10.73,89.01,16.54,146.58,3.27c10.5-2.42,20.74-5.36,30.75-8.81c0.51-0.17,1.02-0.33,1.52-0.5l1.7-0.63
							c2.78-0.99,5.55-2.02,8.29-3.09l0.79-0.29c6.43-2.6,9.94-4.05,14.28-6.1c11.68-5.35,22.98-11.46,33.87-18.32l0.32-0.19
							c0.26-0.17,0.55-0.36,0.82-0.54c7.5-4.77,14.8-9.9,21.91-15.38c0.65-0.47,1.3-0.94,1.92-1.39l2-1.68
							c3.62-2.89,7.18-5.88,10.69-8.95l2.91-2.43c1.59-1.45,3.29-3.07,5.03-4.75c4.89-4.59,9.68-9.35,14.36-14.31
							c7.18-7.62,18.12-20.29,29.48-37.39c0.55-0.82,1.1-1.68,1.66-2.54c4.03-6.2,7.14-11.55,10.05-16.57l0,0
							c0.8-1.37,1.79-3.25,2.55-4.64c-0.12,0.21-0.24,0.41-0.35,0.62c3.69-6.85,6.68-12.97,9.14-18.39c0.05-0.1,0.1-0.21,0.15-0.31
							c2.39-4.87,5.44-12.28,8.56-21.03c0.02-0.06,0.05-0.13,0.07-0.19c0.55-1.47,1.13-3.17,1.71-4.9c0.7-2.04,1.35-4.02,1.96-5.94
							c0.13-0.4,0.26-0.79,0.39-1.17c-0.09,0.28-0.19,0.56-0.29,0.84c1.48-4.67,2.73-8.97,3.78-12.92c0.02-0.07,0.05-0.15,0.07-0.22
							l0.04-0.17c0.06-0.22,0.12-0.45,0.18-0.67c2.43-9.05,4.5-18.36,5.79-27.13c0.04-0.24,0.07-0.5,0.1-0.75
							c0.26-1.66,0.51-3.3,0.74-4.72c-0.05,0.23-0.1,0.47-0.14,0.7c1.05-7.08,1.73-13.14,2.19-18.67c0.01-0.06,0.02-0.13,0.02-0.2
							l0.01-0.22c0.36-4.51,0.58-8.68,0.73-12.74c-0.11,2.23-0.28,4.69-0.5,7.45l0.78-18.52c0,0.05,0,0.09,0,0.14
							c0-0.08,0-0.17,0.01-0.25c0.01-0.26,0-0.55,0-0.85C676.8,253.7,676.8,253.82,676.8,253.94z M379.55-29.84
							c-0.28-0.16-0.04-0.34,0.52-0.42c0.56-0.08,1.24-0.01,1.52,0.15c0.16,0.09,0.13,0.19-0.02,0.28
							c-0.36,0.05-0.72,0.11-1.08,0.17C380.1-29.68,379.73-29.74,379.55-29.84z M641.79,114.37c-0.51-0.97-1.03-1.94-1.55-2.92
							c0.29,0.52,0.59,1.04,0.87,1.54L641.79,114.37z M523.72-5.06c-0.38-0.21-0.81-0.44-1.22-0.67
							C522.9-5.51,523.31-5.28,523.72-5.06z M522.21-5.88c0.66,0.36,1.32,0.73,1.98,1.09c-0.08-0.05-0.17-0.1-0.25-0.15
							c0.98,0.54,1.96,1.07,2.92,1.62c-0.88-0.5-1.78-0.98-2.67-1.47c0,0,0,0,0,0C523.53-5.15,522.88-5.52,522.21-5.88
							C522.21-5.88,522.21-5.88,522.21-5.88z M520.59-6.74c0.16,0.08,0.32,0.17,0.47,0.25C520.9-6.57,520.74-6.65,520.59-6.74
							c0.34,0.18,0.69,0.35,1.03,0.54c-0.08-0.04-0.16-0.08-0.24-0.12c-0.11-0.06-0.21-0.11-0.32-0.17
							c0.11,0.06,0.21,0.11,0.32,0.17c-0.15-0.07-0.31-0.15-0.46-0.23c-0.32-0.17-0.63-0.34-0.95-0.51
							C520.17-6.95,520.38-6.84,520.59-6.74z M383.77-41.97c-0.03,0-0.07,0-0.1,0l-0.3-0.01C383.5-41.97,383.63-41.97,383.77-41.97z
							"/>
					</g>
					<linearGradient id="SVGID_19_" gradientUnits="userSpaceOnUse" x1="426.2371" y1="604.526" x2="373.9719" y2="8.7017">
						<stop  offset="0" style="stop-color:#FFFFFF"/>
						<stop  offset="1" style="stop-color:#FFFFFF;stop-opacity:0"/>
					</linearGradient>
					<path class="st8" d="M555.88,16.92c-0.87,0.22-2.02,0.51-2.89,0.72c3.41,6.3,12.42,5.93,15.31,12.86
						c4.3,4.46,5.06,5.32,8.26,8.94c-1.64-1.27-3.83-2.95-5.48-4.22c10.77,14.03,26.21,23.58,36.41,38.15
						c-15.4-10.74-24.06-29.39-42.7-36.32c1.15,1.49,2.68,3.49,3.82,4.98c-0.87-0.3-2.02-0.69-2.89-0.99
						c2.18,4.7,6.31,7.9,9.21,12.04c-2.15,0.87-5.1,1.83-7.37,2.33c-0.34,0.82-0.8,1.91-1.15,2.72
						c9.58,16.25,13.17,22.33,18.48,24.01c16.41-11.35,37.62,39.73,37.68,40.35c-0.55,0.59-1.28,1.39-1.82,1.98
						c2.97,17.17,22.78,26.59,21.13,45.89c-6.84-2.69-6.72-11.21-12.42-14.85c-2.51-5.5-2.51-5.5-5.54-8.39
						c-0.35,1.61-0.55,3.82-0.53,5.47c-1.5-1.18-1.5-1.18-7.36-9.65c-0.9,4.07-1.2,5.44,1.94,23.24c0.79,0.35,1.84,0.81,2.62,1.16
						c1.28-0.94,3.17-1.96,4.66-2.5c0.29-0.75,0.68-1.74,0.97-2.49c23.87,45.28,23.87,45.28,11.56,112.25
						c-4.07-16.85-4.07-16.85-5.95-19.39c-17.11,23.29,25.58,62.8-7.72,74.39c-3.52-4.01-3.52-4.01-6.32-18.4
						c-1.51,3.45-1.51,3.45-6.25,27.71c-5.85-12.11,1.01-24.93-2.08-37.19c-1.82,0.54-3.93,2.39-4.9,4.03
						c-1.09-2.69-1.09-2.69-2.27-11.77c-9.19-5.93-10.14-20.56-23.42-22.18c-28.93,36.88-28.52,48.37-27.99,62.92
						c0.57,15.95-0.25,16.62-10.34,24.92c-5.77-8.24-19.75-64.11-20.13-70c-4.09,0.09-6.67,5.2-11.33,3.41
						c-12.52-4.8-17.58-20.9-32.78-21.65c-53.04-2.61-63.98-18.75-68.1-24.82c-6.24,11.45,13.8,38.32,16.28,38.29
						c4.18-0.05,12.54-10.47,16.56-15.47c5.6,8.99,16.74,28.31,16.74,28.32c-8.3,14.71-22.18,39.33-61.57,51.16
						c-4.75-5.34-6.18-6.95-17.27-30.47c-24.5-51.98-27.15-55.5-36.57-59.1c2.83,26.79,30.44,87.57,49.65,102.64
						c7.95-2.4,18.9-5.18,27.21-5.13c1.07,1.45,2.49,3.39,3.56,4.85c-3.67,16.56-12.06,28.83-44.89,65.67
						c-6.58,7.38-8.14,9.13-9,12.37c-3.84,14.43,15.47,31.58-1.22,43.58c-13.25,9.52-13.25,9.52-10.72,22.74
						c-12.88,4.2-16.36,23.67-33.65,20.7c-4.31-0.74-4.4-0.76-34.27-32.37c-20.26-21.44-21.21-52.78-38.77-75.6
						c-8.51-11.06-0.89-37.68-20.36-36.09c-10.61-11.87-10.61-11.87-12.28-12.36c-8.97-2.64-17.57,5.46-26.61,0.92
						c-34.52,13.95-57.37-70.94-39.21-113.35c7.18-16.78,21.13-28.99,30.13-44.54l6.25-3.19c3.38-3.24,3.38-3.24,9.55-10.7
						c2.57,4.37,3.54,6,18.9,3.96c0.32-0.04,35.41-0.67,37.4,1.15c-4.99,7.26-4.99,7.26,0.9,24.1c0.85,0.37,1.9,1.15,2.82,1.22
						c0.87,0.06,2.03-0.25,2.9-0.22c3.39,0.12,6,5.15,8.57,7.36c0.14,0.12,14.48,11.78,20.89-5.96
						c20.9,18.24,63.08,18.59,59.27-11.02c-0.62-4.83-0.62-4.83-27.27-9.75c-10.65-1.97-10.58-2.39-7-24.49
						c-10.7,1.53-10.7,1.53-13.4,1.05c-1.47,1.98-4.19,5.65,1.94,12.48c-2.55,1.57-4.53,5.37-6.01,7.97
						c-12.21-15.37-11.77-37.77-28.23-50.77c-0.66,0.64-1.55,1.49-2.21,2.13c0.19,12.19,11.29,18.77,14.98,29.16
						c-0.88-0.19-2.06-0.44-2.94-0.64c-3.92,4.64-6.44,10.35-11.01,14.5c-0.88-0.36-2.04-0.85-2.92-1.21
						c9.15-8.42,9.15-8.42,9.41-8.81c-4.07-10.06-14.83-16.16-16.36-27.72c-1.61-0.15-3.75-0.36-5.36-0.51
						c-4.29,4.4-6.37,3.43-10.91,1.29c-16.26,8.41-24.53,34.96-48.64,25.52c0.63-14.99,8.74-44.11,20.91-30.14
						c0.54,0.62,1.14,1.53,1.63,2.19c0.18,0.02,17.34,0.65,8.89-22.03c0.52-0.59,1.22-1.38,1.74-1.96c0.9,0.2,2.1,0.47,3,0.68
						c0.5-0.72,1.17-1.67,1.67-2.38c-0.61-1.67-1.27-3.95-1.59-5.7c21.21,4.11,38.29-34.03,57.35-13.78c5.99-4.03,6.12-4,12.87-2.11
						c4.47-3.19,4.47-3.19,7.31-11.27c1.65,0.44,3.92,0.8,5.62,0.96c1.54-3.36,1.54-3.36,2.29-11.25c4.93,3.28,6.88,2.93,10.42-1.87
						c-0.25-0.99-0.59-2.32-0.84-3.31c-3.4-0.14-3.4-0.14-9.24,0.59c-6.44-6.78,4.18-12.61,4.42-19.34
						c-7.49,3.01-20.54,11.53-16.31,22.22c-12.97,14.5-12.97,14.5-16.22,15.56c-0.88-0.55-2.04-1.29-2.92-1.84
						c-1.83-11.16-1.83-11.16-6.53-17.39c-0.9,0.63-2.1,1.46-2.99,2.09c1.7-31.29,59.83-49.54,76.51-30.99
						c-2.59,2.68-7.21,5.11-10.78,6.19c-0.12,0.98-0.12,0.98,5.45,12.62l42.75-23.62c5.92,5.25,11.51,10.21,17.65,4.4
						c-7.52-12.62-7.52-12.62-7.86-14.43c0.65-0.49,1.52-1.13,2.17-1.62c8.72,3.86,8.61,13.74,13.68,20.09
						c0.98-0.14,2.29-0.33,3.27-0.48c0.26-0.9,0.61-2.1,0.87-2.99c-6.14-10.11-6.14-10.11-8.01-14.74
						c3.31,4.05,6.26,8.38,9.68,12.35c0.66-0.55,1.54-1.28,2.21-1.83c-1.27-4.66-4.13-8.65-5.58-13.24
						c15.4-10.18,15.4-10.18,15.61-11.12c0.2-0.12,20.29-11.04,27.23,6.06c15.45-3.83,31.54-0.39,47-4.11
						c-0.9-3.5-0.9-3.5-4.21-7.54c12.56,1.53,24.46-4.26,36.96-3.34c-1.29-1.42-3.07-3.26-4.49-4.55c8.08-1.99,8.08-1.99,11.01-1.28
						c0.41-0.75,0.96-1.74,1.37-2.49C553.17,14.28,555.62,16.65,555.88,16.92"/>
					<g>
						<defs>
							<path id="SVGID_20_" d="M615.61,341.11c-0.01,0.04-0.02,0.09-0.04,0.13C615.59,341.19,615.6,341.15,615.61,341.11
								C615.61,341.11,615.61,341.11,615.61,341.11"/>
						</defs>
						<use xlink:href="#SVGID_20_"  style="overflow:visible;fill:#F2F2F2;"/>
						<clipPath id="SVGID_21_">
							<use xlink:href="#SVGID_20_"  style="overflow:visible;"/>
						</clipPath>
						<g class="st9">
							<defs>
								<path id="SVGID_22_" d="M617.27,344.5c-1.08,0.43-2.18,0.85-3.3,1.27c0.32-2.03,0.63-4.07,0.92-6.12
									c1.12-0.42,2.22-0.85,3.31-1.27C617.91,340.43,617.6,342.47,617.27,344.5"/>
							</defs>
							<use xlink:href="#SVGID_22_"  style="overflow:visible;fill:#F2F2F2;"/>
							<clipPath id="SVGID_23_">
								<use xlink:href="#SVGID_22_"  style="overflow:visible;"/>
							</clipPath>
						</g>
					</g>
					<g>
						<linearGradient id="SVGID_24_" gradientUnits="userSpaceOnUse" x1="559.5771" y1="72.5409" x2="721.5991" y2="635.9602">
							<stop  offset="0" style="stop-color:#FFFFFF"/>
							<stop  offset="1" style="stop-color:#FFFFFF;stop-opacity:0"/>
						</linearGradient>
						<path class="st10" d="M656.6,347.09l-6.37,21.6c-0.11,0.24-11.08,24.43-13.72,23.49c-1.57,0.77-2.45,2.69-4.48,2.7
							c-0.68-2.07,3.73-21.22,6.07-20.23c0.17,0.07,0.39,0.19,0.57,0.22c0.61-0.5,0.95-0.77,1.67-2.21
							c2.44-4.93,3.8-10.32,6.3-15.22c1.25-2.45,3.61-4.08,4.8-6.57c2.09-4.37,3.15-7.16,4.53-10.92
							C657.03,340.83,658.12,341.78,656.6,347.09"/>
						<g>
							<defs>
								<path id="SVGID_25_" d="M407.51,496.72c-0.66,2.87-2,6.11-2.68,7.49c-2.9,5.79-7.21,10.7-10.3,16.37
									c-0.53,0.96-1.5,2.76-1.6,4.82c0,0.03-0.03,0.66-0.32,1.04c-0.54,0.72-1.46,0.75-1.63,0.74c-0.52-0.01-7.75,1.99-7.82,2.02
									c-0.92-1.14-2.15-2.66-3.07-3.8c0.11-2.2-0.51-4.42,0.21-6.6c0.15-0.46,0.15-0.46,2.47-1.49c2.91-1.3,3.24-11.14,3.16-11.53
									c-0.69-3.16-0.69-3.16-0.43-3.76c0.13-0.29,0.71-0.52,1.57-0.39c0.24,0.04,0.57-0.12,0.8-0.22
									c15.4-6.63,15.4-6.63,18.73-13.27l1.43,5.8C407.86,494.77,407.7,495.89,407.51,496.72"/>
							</defs>
							<linearGradient id="SVGID_26_" gradientUnits="userSpaceOnUse" x1="290.699" y1="149.8616" x2="452.7215" y2="713.2828">
								<stop  offset="0" style="stop-color:#FFFFFF"/>
								<stop  offset="1" style="stop-color:#FFFFFF;stop-opacity:0"/>
							</linearGradient>
							<use xlink:href="#SVGID_25_"  style="overflow:visible;fill:url(#SVGID_26_);"/>
							<clipPath id="SVGID_27_">
								<use xlink:href="#SVGID_25_"  style="overflow:visible;"/>
							</clipPath>
							<g class="st11">
								<defs>
									<path id="SVGID_28_" d="M403.31,529.86c-8.23,0.35-16.48,0.56-24.7,0.62c0.68-11.33,1.28-25.6,1.8-42.48
										c10.25-0.08,20.52-0.33,30.77-0.77C408.95,504.15,406.3,518.47,403.31,529.86"/>
								</defs>
								<linearGradient id="SVGID_29_" gradientUnits="userSpaceOnUse" x1="291.5812" y1="149.6079" x2="453.6028" y2="713.026">
									<stop  offset="0" style="stop-color:#FFFFFF"/>
									<stop  offset="1" style="stop-color:#FFFFFF;stop-opacity:0"/>
								</linearGradient>
								<use xlink:href="#SVGID_28_"  style="overflow:visible;fill:url(#SVGID_29_);"/>
								<clipPath id="SVGID_30_">
									<use xlink:href="#SVGID_28_"  style="overflow:visible;"/>
								</clipPath>
							</g>
						</g>
						<linearGradient id="SVGID_31_" gradientUnits="userSpaceOnUse" x1="530.1373" y1="81.0071" x2="692.159" y2="644.4254">
							<stop  offset="0" style="stop-color:#FFFFFF"/>
							<stop  offset="1" style="stop-color:#FFFFFF;stop-opacity:0"/>
						</linearGradient>
						<path class="st12" d="M620.93,402.3c-1.72,3.5-3.49,4.97-4.67,5.95c-0.52-0.81-0.59-2.03-0.42-7.65
							c0.21-6.92,0.76-25.31-3.28-39.31l0.76-0.63c0.82,1.27,1.83,0.83,2.58,0.52c0.7-0.3,2.22,2.23,2.23,2.25
							c3.36,5.71,4.72,11.81,5.15,14.16C625.68,390.69,622.43,399.23,620.93,402.3"/>
						<linearGradient id="SVGID_32_" gradientUnits="userSpaceOnUse" x1="79.2725" y1="210.6617" x2="241.2948" y2="774.082">
							<stop  offset="0" style="stop-color:#FFFFFF"/>
							<stop  offset="1" style="stop-color:#FFFFFF;stop-opacity:0"/>
						</linearGradient>
						<path class="st13" d="M134.77,409.47c4.83,11.75,12.13,29.5,37.76,55.01c-5.04-5.28-11.9-12.19-16.71-17.67
							c-18.06-22.38-19.14-23.72-28.66-38.91c-14.63-25.87-15.2-26.88-21.89-42.97c-10.34-28.35-10.75-29.46-14.66-46.38l-0.08-0.36
							c5.06,20.52,9.36,31.73,14.34,44.71c-0.06-0.26-0.15-0.6-0.21-0.86l27.44,42.59C133.18,406.35,134.04,407.7,134.77,409.47"/>
					</g>
					<linearGradient id="SVGID_33_" gradientUnits="userSpaceOnUse" x1="111.9721" y1="66.0589" x2="230.4103" y2="66.0589">
						<stop  offset="0" style="stop-color:#FFFFFF"/>
						<stop  offset="1" style="stop-color:#FFFFFF;stop-opacity:0"/>
					</linearGradient>
					<path class="st14" d="M155.67,89.57c-10.45,10.18-12.29,6.51-13.39,4.33c-2.16-4.29-6.31,0.5-7.33,2.61
						c5.07,4.53-4.42,8.56-5.92,13.16c1.47,2.64,1.47,2.64,0.85,3.36c-2.74,3.16-6.82,4.46-9.93,7.11c0.34-1.87,4.56-7.46,6.82-9.65
						c-0.25-0.12-0.59-0.29-0.84-0.41c-1.16,0.63-1.16,0.63-10.59,12.68c0.14-0.44,0.35-1.02,0.53-1.45
						c-1.56,2.16-1.63,2.25-3.9,6.54l4.15-7.85c15.14-25.28,15.73-26.27,26.59-40.31c17.95-21.25,19.42-22.99,33.17-35.82
						c19.14-16.36,22.09-18.88,39.81-30.71l14.72-8.89c-2.9,1.63-7.75,4.36-21.75,14.17c2.3-1.42,2.5-1.52,3.45-1.98
						c0.04,0.21,0.1,0.49,0.14,0.7c-2.07,2.53-5.28,3.91-6.97,6.84c5.93-1.53,9.4-8.35,16.39-7.6c0.01,0.01,0.01,0.02,0.02,0.03
						c-5.1,3.8-10.97,6.43-15.86,10.55c2.32,0.43,4.2-1.03,6.33-1.43c-3.22,7.15-10.83,4.63-16.08,7.3c1.41-1.28,3-2.35,4.37-3.68
						l-20.11,11.2c-8.62,6.94-14.82,16.26-23.08,23.55c-8.14,8.28-9.54,10.8-10.22,12.02c4.67-2.66,6.87-8.08,11.76-10.51
						c0.08,0.18,0.19,0.41,0.27,0.59c5.83-5.25,10.81-11.42,17.36-15.89c-0.38,0.55-0.83,1.04-1.24,1.56
						c2.96-1.65,8.28-5.06,8.33-5.09c0.03,0.8,0.1,2.29-3.12,6.29c-3.1,3.85-7.22,6.7-10.38,10.49c2.71-0.09,4.84-2.24,7.6-2.16
						c-0.4,0.93-0.51,1.18-4.24,4.49c-6.29,6.81-14.91,16.13-14.96,18.01C158.36,86.2,157.71,87.56,155.67,89.57"/>
					<linearGradient id="SVGID_34_" gradientUnits="userSpaceOnUse" x1="203.9627" y1="26.0621" x2="307.5341" y2="26.0621">
						<stop  offset="0" style="stop-color:#FFFFFF"/>
						<stop  offset="1" style="stop-color:#FFFFFF;stop-opacity:0"/>
					</linearGradient>
					<path class="st15" d="M306.72,13.18c-3.78,2.95-8.89,3.36-12.57,6.52c-1.64,1.42-2.97,3.18-4.84,4.35
						c-0.2,0.12-0.48,0.27-0.69,0.38c-0.95,0.47-5.12,2.12-6.71,1.03c-0.91-0.63-1.25-0.86-5.65,2.67
						c-2.88,2.32-4.19,3.85-5.57,5.47c-5.32,6.24-9.25,6.21-10.73,6.2c-12.7-0.08-12.7-0.08-21.55,3.96
						c-3.89,1.77-8.31,0.45-12.22,2.12c-8.18,3.51-13.07,12.19-22.23,14.15c-0.09-6.68,16.51-25.81,24.65-29.86
						c0.11,0.13,0.27,0.3,0.38,0.42c-0.03,0.35-0.01,0.84,0.08,1.18c1.02,0.23,1.49,0.34,7.15-3.28
						C259.3,9.01,260.27,7.07,259.96,5.53c-0.14-0.7,0.47-2.14,1.51-3.01c0.17-0.14,4.18-3.47,4.46,0.94
						c2.45-0.59,6.76-1.82,8.18-3.37C272.7-1.93,258.02,0.16,253,1.06c-2.34,0.41-2.34,0.41-2.9,0.02
						c0.04-0.06,4.99-6.18,10.31-8.14c4.53-1.67,9.22-0.24,13.81-0.74c2.81-0.3,5.88,1.6,11.45,5.05
						C308.73,11.51,308.73,11.51,306.72,13.18"/>
					<linearGradient id="SVGID_35_" gradientUnits="userSpaceOnUse" x1="192.1753" y1="27.3132" x2="236.6068" y2="27.3132">
						<stop  offset="0" style="stop-color:#FFFFFF"/>
						<stop  offset="1" style="stop-color:#FFFFFF;stop-opacity:0"/>
					</linearGradient>
					<path class="st16" d="M209.23,35.77c1.22-1.72,1.29-1.91,1.46-2.36c-0.07-0.02-0.17-0.05-0.24-0.07
						c-1.22,0.67-3.59,2.84-7.29,6.37c-2.84,2.71-2.96,2.74-3.31,2.82c0.09-0.38,0.18-0.75,2.49-3.73
						c-2.14,0.52-4.61,2.98-6.31,4.95c-5.29,6.14-4.28,1.48-2.01-2.24c0.05-0.08,4.76-7.71,9.64-8.47
						c2.45-0.38,19.44-9.95,23.21-18.9c-0.06-0.07-0.13-0.16-0.19-0.23c-1.35,0.32-2.43,1.19-3.64,1.79
						c2.77-3.59,7.29-5.37,13.56-7.83l-3.73,2.68c3.18-0.52,3.53,0.97,1.04,4.41c-0.37,0.52-3.79,5.12-8.36,7.22l-5.9,5.74
						l-6.23,5.17L209.23,35.77"/>
					<g>
						<defs>
							<path id="SVGID_36_" d="M241.76-0.67c-5.07,2.63-5.07,2.63-5.59,2.92c-5.63,3.12-5.63,3.12-5.73,3.11
								c-0.02-0.06-0.05-0.14-0.07-0.21c-0.58-0.08-1.12,0.27-1.71,0.16c0.01-0.04,3.49-3.35,3.52-3.38
								c0.96-0.81,2.14-1.57,2.97-2.08l13.4-7.91c0.04-0.02,4.44-2.12,5.04-1.83c-0.07,0.13-0.21,0.28-0.32,0.38
								c-0.88,0.67-2.02,1.35-2.83,1.8c-2.33,1.3-9.41,5.24-9.83,6.45c0.08,0.09,0.08,0.09,2.28-0.18
								C242.79-1.2,242.79-1.2,241.76-0.67"/>
						</defs>
						<linearGradient id="SVGID_37_" gradientUnits="userSpaceOnUse" x1="228.6723" y1="-2.2681" x2="253.5944" y2="-2.2681">
							<stop  offset="0" style="stop-color:#FFFFFF"/>
							<stop  offset="1" style="stop-color:#FFFFFF;stop-opacity:0"/>
						</linearGradient>
						<use xlink:href="#SVGID_36_"  style="overflow:visible;fill:url(#SVGID_37_);"/>
						<clipPath id="SVGID_38_">
							<use xlink:href="#SVGID_36_"  style="overflow:visible;"/>
						</clipPath>
						<g class="st17">
							<defs>
								<path id="SVGID_39_" d="M224.88,9.06c2.22-3.44,5.82-6.79,10.71-10c7.57-4.52,15.41-8.62,23.5-12.27
									c-4.15,2.72-7.21,5.57-9.09,8.48C241.35-0.55,232.97,4.05,224.88,9.06"/>
							</defs>
							<linearGradient id="SVGID_40_" gradientUnits="userSpaceOnUse" x1="224.8785" y1="-2.0742" x2="259.0946" y2="-2.0742">
								<stop  offset="0" style="stop-color:#FFFFFF"/>
								<stop  offset="1" style="stop-color:#FFFFFF;stop-opacity:0"/>
							</linearGradient>
							<use xlink:href="#SVGID_39_"  style="overflow:visible;fill:url(#SVGID_40_);"/>
							<clipPath id="SVGID_41_">
								<use xlink:href="#SVGID_39_"  style="overflow:visible;"/>
							</clipPath>
						</g>
					</g>
				</g>
				<g>
					<g>
						<defs>
							<path id="SVGID_42_" d="M615.61,341.11c-0.01,0.04-0.02,0.09-0.04,0.13C615.59,341.19,615.6,341.15,615.61,341.11
								C615.61,341.11,615.61,341.11,615.61,341.11"/>
						</defs>
						<clipPath id="SVGID_43_">
							<use xlink:href="#SVGID_42_"  style="overflow:visible;"/>
						</clipPath>
						<g class="st18">
							<defs>
								<path id="SVGID_44_" d="M617.27,344.5c-1.08,0.43-2.18,0.85-3.3,1.27c0.32-2.03,0.63-4.07,0.92-6.12
									c1.12-0.42,2.22-0.85,3.31-1.27C617.91,340.43,617.6,342.47,617.27,344.5"/>
							</defs>
							<clipPath id="SVGID_45_">
								<use xlink:href="#SVGID_44_"  style="overflow:visible;"/>
							</clipPath>
						</g>
					</g>
					<g>
						<g>
							<defs>
								<path id="SVGID_46_" d="M407.51,496.72c-0.66,2.87-2,6.11-2.68,7.49c-2.9,5.79-7.21,10.7-10.3,16.37
									c-0.53,0.96-1.5,2.76-1.6,4.82c0,0.03-0.03,0.66-0.32,1.04c-0.54,0.72-1.46,0.75-1.63,0.74c-0.52-0.01-7.75,1.99-7.82,2.02
									c-0.92-1.14-2.15-2.66-3.07-3.8c0.11-2.2-0.51-4.42,0.21-6.6c0.15-0.46,0.15-0.46,2.47-1.49c2.91-1.3,3.24-11.14,3.16-11.53
									c-0.69-3.16-0.69-3.16-0.43-3.76c0.13-0.29,0.71-0.52,1.57-0.39c0.24,0.04,0.57-0.12,0.8-0.22
									c15.4-6.63,15.4-6.63,18.73-13.27l1.43,5.8C407.86,494.77,407.7,495.89,407.51,496.72"/>
							</defs>
							<clipPath id="SVGID_47_">
								<use xlink:href="#SVGID_46_"  style="overflow:visible;"/>
							</clipPath>
							<g class="st19">
								<defs>
									<path id="SVGID_48_" d="M403.31,529.86c-8.23,0.35-16.48,0.56-24.7,0.62c0.68-11.33,1.28-25.6,1.8-42.48
										c10.25-0.08,20.52-0.33,30.77-0.77C408.95,504.15,406.3,518.47,403.31,529.86"/>
								</defs>
								<clipPath id="SVGID_49_">
									<use xlink:href="#SVGID_48_"  style="overflow:visible;"/>
								</clipPath>
							</g>
						</g>
					</g>
					<g>
						<defs>
							<path id="SVGID_50_" d="M241.76-0.67c-5.07,2.63-5.07,2.63-5.59,2.92c-5.63,3.12-5.63,3.12-5.73,3.11
								c-0.02-0.06-0.05-0.14-0.07-0.21c-0.58-0.08-1.12,0.27-1.71,0.16c0.01-0.04,3.49-3.35,3.52-3.38
								c0.96-0.81,2.14-1.57,2.97-2.08l13.4-7.91c0.04-0.02,4.44-2.12,5.04-1.83c-0.07,0.13-0.21,0.28-0.32,0.38
								c-0.88,0.67-2.02,1.35-2.83,1.8c-2.33,1.3-9.41,5.24-9.83,6.45c0.08,0.09,0.08,0.09,2.28-0.18
								C242.79-1.2,242.79-1.2,241.76-0.67"/>
						</defs>
						<clipPath id="SVGID_51_">
							<use xlink:href="#SVGID_50_"  style="overflow:visible;"/>
						</clipPath>
						<g class="st20">
							<defs>
								<path id="SVGID_52_" d="M224.88,9.06c2.22-3.44,5.82-6.79,10.71-10c7.57-4.52,15.41-8.62,23.5-12.27
									c-4.15,2.72-7.21,5.57-9.09,8.48C241.35-0.55,232.97,4.05,224.88,9.06"/>
							</defs>
							<clipPath id="SVGID_53_">
								<use xlink:href="#SVGID_52_"  style="overflow:visible;"/>
							</clipPath>
						</g>
					</g>
				</g>
			</g>
		</g>
		<g class="st21">
			
				<rect x="205.91" y="119.07" transform="matrix(0.0284 -0.9996 0.9996 0.0284 69.6055 338.2991)" class="st22" width="5.83" height="28.54"/>
		</g>
		<g class="st21">
			<g>
				<linearGradient id="SVGID_54_" gradientUnits="userSpaceOnUse" x1="-154.6749" y1="297.6994" x2="711.1761" y2="580.7784">
					<stop  offset="0" style="stop-color:#EC1C4E"/>
					<stop  offset="1" style="stop-color:#C23592"/>
				</linearGradient>
				<polygon class="st23" points="225.79,415.24 228.6,417.91 220.06,427.06 217.1,424.24 				"/>
			</g>
			<g>
				<linearGradient id="SVGID_55_" gradientUnits="userSpaceOnUse" x1="-153.6898" y1="294.6831" x2="712.1636" y2="577.7629">
					<stop  offset="0" style="stop-color:#EC1C4E"/>
					<stop  offset="1" style="stop-color:#C23592"/>
				</linearGradient>
				<path class="st24" d="M220.84,410.32l2.73,2.75l-8.82,8.88c-0.97-0.96-1.92-1.93-2.88-2.91L220.84,410.32z"/>
			</g>
			<g>
				<linearGradient id="SVGID_56_" gradientUnits="userSpaceOnUse" x1="-152.6364" y1="291.4795" x2="713.2051" y2="574.5553">
					<stop  offset="0" style="stop-color:#EC1C4E"/>
					<stop  offset="1" style="stop-color:#C23592"/>
				</linearGradient>
				<path class="st25" d="M216.06,405.24c0.86,0.96,1.76,1.89,2.64,2.84l-9.09,8.6c-0.93-1-1.87-1.99-2.78-3L216.06,405.24z"/>
			</g>
			<g>
				<linearGradient id="SVGID_57_" gradientUnits="userSpaceOnUse" x1="-151.529" y1="288.0842" x2="714.3169" y2="571.1616">
					<stop  offset="0" style="stop-color:#EC1C4E"/>
					<stop  offset="1" style="stop-color:#C23592"/>
				</linearGradient>
				<path class="st26" d="M211.44,400.02c0.84,0.98,1.69,1.96,2.55,2.92l-9.36,8.31c-0.91-1.02-1.8-2.05-2.69-3.08L211.44,400.02z"
					/>
			</g>
			<g>
				<linearGradient id="SVGID_58_" gradientUnits="userSpaceOnUse" x1="-150.3588" y1="284.5083" x2="715.4858" y2="567.5852">
					<stop  offset="0" style="stop-color:#EC1C4E"/>
					<stop  offset="1" style="stop-color:#C23592"/>
				</linearGradient>
				<polygon class="st27" points="206.98,394.66 209.44,397.66 199.82,405.67 197.23,402.51 				"/>
			</g>
			<g>
				<linearGradient id="SVGID_59_" gradientUnits="userSpaceOnUse" x1="-149.1297" y1="280.7493" x2="716.7131" y2="563.8257">
					<stop  offset="0" style="stop-color:#EC1C4E"/>
					<stop  offset="1" style="stop-color:#C23592"/>
				</linearGradient>
				<path class="st28" d="M202.7,389.16c0.78,1.03,1.56,2.06,2.36,3.07l-9.86,7.71c-0.84-1.07-1.67-2.16-2.49-3.25L202.7,389.16z"/>
			</g>
			<g>
				<linearGradient id="SVGID_60_" gradientUnits="userSpaceOnUse" x1="-147.8406" y1="276.8062" x2="718.0023" y2="559.8825">
					<stop  offset="0" style="stop-color:#EC1C4E"/>
					<stop  offset="1" style="stop-color:#C23592"/>
				</linearGradient>
				<path class="st29" d="M198.61,383.51c0.75,1.05,1.48,2.12,2.24,3.16l-10.1,7.39c-0.81-1.1-1.58-2.23-2.37-3.34L198.61,383.51z"
					/>
			</g>
			<g>
				<linearGradient id="SVGID_61_" gradientUnits="userSpaceOnUse" x1="-146.4967" y1="272.6967" x2="719.3476" y2="555.7735">
					<stop  offset="0" style="stop-color:#EC1C4E"/>
					<stop  offset="1" style="stop-color:#C23592"/>
				</linearGradient>
				<path class="st30" d="M194.68,377.75c0.72,1.07,1.41,2.16,2.14,3.23l-10.33,7.07c-0.77-1.12-1.51-2.27-2.27-3.41L194.68,377.75z
					"/>
			</g>
			<g>
				<linearGradient id="SVGID_62_" gradientUnits="userSpaceOnUse" x1="-145.1001" y1="268.4191" x2="720.7477" y2="551.4971">
					<stop  offset="0" style="stop-color:#EC1C4E"/>
					<stop  offset="1" style="stop-color:#C23592"/>
				</linearGradient>
				<polygon class="st31" points="190.93,371.87 192.97,375.17 182.42,381.91 180.27,378.43 				"/>
			</g>
			<g>
				<linearGradient id="SVGID_63_" gradientUnits="userSpaceOnUse" x1="-143.6441" y1="263.9775" x2="722.194" y2="547.0522">
					<stop  offset="0" style="stop-color:#EC1C4E"/>
					<stop  offset="1" style="stop-color:#C23592"/>
				</linearGradient>
				<polygon class="st32" points="187.37,365.88 189.3,369.23 178.55,375.64 176.51,372.09 				"/>
			</g>
			<g>
				<linearGradient id="SVGID_64_" gradientUnits="userSpaceOnUse" x1="-142.1409" y1="259.3706" x2="723.7037" y2="542.4475">
					<stop  offset="0" style="stop-color:#EC1C4E"/>
					<stop  offset="1" style="stop-color:#C23592"/>
				</linearGradient>
				<polygon class="st33" points="184.01,359.77 185.83,363.19 174.88,369.25 172.95,365.64 				"/>
			</g>
			<g>
				<linearGradient id="SVGID_65_" gradientUnits="userSpaceOnUse" x1="-140.5849" y1="254.6075" x2="725.2625" y2="537.6854">
					<stop  offset="0" style="stop-color:#EC1C4E"/>
					<stop  offset="1" style="stop-color:#C23592"/>
				</linearGradient>
				<polygon class="st34" points="180.84,353.56 182.56,357.03 171.42,362.74 169.6,359.08 				"/>
			</g>
			<g>
				<linearGradient id="SVGID_66_" gradientUnits="userSpaceOnUse" x1="-138.9769" y1="249.6931" x2="726.8689" y2="532.7704">
					<stop  offset="0" style="stop-color:#EC1C4E"/>
					<stop  offset="1" style="stop-color:#C23592"/>
				</linearGradient>
				<polygon class="st35" points="177.87,347.26 179.48,350.78 168.16,356.13 166.46,352.41 				"/>
			</g>
			<g>
				<linearGradient id="SVGID_67_" gradientUnits="userSpaceOnUse" x1="-137.3221" y1="244.6311" x2="728.5231" y2="527.7083">
					<stop  offset="0" style="stop-color:#EC1C4E"/>
					<stop  offset="1" style="stop-color:#C23592"/>
				</linearGradient>
				<polygon class="st36" points="175.1,340.86 176.59,344.43 165.12,349.42 163.53,345.65 				"/>
			</g>
			<g>
				<linearGradient id="SVGID_68_" gradientUnits="userSpaceOnUse" x1="-135.622" y1="239.4267" x2="730.2281" y2="522.5054">
					<stop  offset="0" style="stop-color:#EC1C4E"/>
					<stop  offset="1" style="stop-color:#C23592"/>
				</linearGradient>
				<polygon class="st37" points="172.53,334.38 173.92,337.99 162.29,342.62 160.82,338.8 				"/>
			</g>
			<g>
				<linearGradient id="SVGID_69_" gradientUnits="userSpaceOnUse" x1="-133.8761" y1="234.0858" x2="731.9724" y2="517.164">
					<stop  offset="0" style="stop-color:#EC1C4E"/>
					<stop  offset="1" style="stop-color:#C23592"/>
				</linearGradient>
				<polygon class="st38" points="170.17,327.82 171.44,331.48 159.67,335.73 158.33,331.86 				"/>
			</g>
			<g>
				<linearGradient id="SVGID_70_" gradientUnits="userSpaceOnUse" x1="-132.086" y1="228.6141" x2="733.7621" y2="511.6921">
					<stop  offset="0" style="stop-color:#EC1C4E"/>
					<stop  offset="1" style="stop-color:#C23592"/>
				</linearGradient>
				<polygon class="st39" points="168.02,321.18 169.18,324.88 157.28,328.76 156.06,324.86 				"/>
			</g>
			<g>
				<linearGradient id="SVGID_71_" gradientUnits="userSpaceOnUse" x1="-130.2578" y1="223.0159" x2="735.5931" y2="506.0948">
					<stop  offset="0" style="stop-color:#EC1C4E"/>
					<stop  offset="1" style="stop-color:#C23592"/>
				</linearGradient>
				<polygon class="st40" points="166.08,314.49 167.12,318.22 155.1,321.72 154.01,317.78 				"/>
			</g>
			<g>
				<linearGradient id="SVGID_72_" gradientUnits="userSpaceOnUse" x1="-128.3876" y1="217.2989" x2="737.4606" y2="500.377">
					<stop  offset="0" style="stop-color:#EC1C4E"/>
					<stop  offset="1" style="stop-color:#C23592"/>
				</linearGradient>
				<polygon class="st41" points="164.35,307.73 165.27,311.5 153.15,314.62 152.18,310.64 				"/>
			</g>
			<g>
				<linearGradient id="SVGID_73_" gradientUnits="userSpaceOnUse" x1="-126.4794" y1="211.4686" x2="739.3657" y2="494.5457">
					<stop  offset="0" style="stop-color:#EC1C4E"/>
					<stop  offset="1" style="stop-color:#C23592"/>
				</linearGradient>
				<polygon class="st42" points="162.84,300.92 163.63,304.72 151.42,307.46 150.58,303.45 				"/>
			</g>
			<g>
				<linearGradient id="SVGID_74_" gradientUnits="userSpaceOnUse" x1="-124.5375" y1="205.5304" x2="741.3065" y2="488.6071">
					<stop  offset="0" style="stop-color:#EC1C4E"/>
					<stop  offset="1" style="stop-color:#C23592"/>
				</linearGradient>
				<polygon class="st43" points="161.54,294.07 162.21,297.89 149.92,300.25 149.21,296.22 				"/>
			</g>
			<g>
				<linearGradient id="SVGID_75_" gradientUnits="userSpaceOnUse" x1="-122.5634" y1="199.4909" x2="743.2795" y2="482.5672">
					<stop  offset="0" style="stop-color:#EC1C4E"/>
					<stop  offset="1" style="stop-color:#C23592"/>
				</linearGradient>
				<polygon class="st44" points="160.45,287.18 161,291.02 148.64,292.99 148.06,288.95 				"/>
			</g>
		</g>
		<g class="st21">
			<g>
				<linearGradient id="SVGID_76_" gradientUnits="userSpaceOnUse" x1="-45.7654" y1="-35.4109" x2="820.0797" y2="247.6662">
					<stop  offset="0" style="stop-color:#EC1C4E"/>
					<stop  offset="1" style="stop-color:#C23592"/>
				</linearGradient>
				<polygon class="st45" points="261.21,67.49 257.95,69.65 250.99,59.25 254.44,56.97 				"/>
			</g>
			<g>
				<linearGradient id="SVGID_77_" gradientUnits="userSpaceOnUse" x1="-44.0299" y1="-40.718" x2="821.8135" y2="242.3585">
					<stop  offset="0" style="stop-color:#EC1C4E"/>
					<stop  offset="1" style="stop-color:#C23592"/>
				</linearGradient>
				<polygon class="st46" points="267.2,63.78 263.86,65.82 257.23,55.21 260.76,53.05 				"/>
			</g>
			<g>
				<linearGradient id="SVGID_78_" gradientUnits="userSpaceOnUse" x1="-42.3402" y1="-45.8872" x2="823.4921" y2="237.1857">
					<stop  offset="0" style="stop-color:#EC1C4E"/>
					<stop  offset="1" style="stop-color:#C23592"/>
				</linearGradient>
				<polygon class="st47" points="273.3,60.26 269.89,62.18 263.6,51.35 267.21,49.33 				"/>
			</g>
			<g>
				<linearGradient id="SVGID_79_" gradientUnits="userSpaceOnUse" x1="-40.6991" y1="-50.9099" x2="825.1482" y2="232.1679">
					<stop  offset="0" style="stop-color:#EC1C4E"/>
					<stop  offset="1" style="stop-color:#C23592"/>
				</linearGradient>
				<polygon class="st48" points="279.51,56.93 276.03,58.73 270.09,47.71 273.77,45.81 				"/>
			</g>
			<g>
				<linearGradient id="SVGID_80_" gradientUnits="userSpaceOnUse" x1="-39.1067" y1="-55.772" x2="826.7336" y2="227.3035">
					<stop  offset="0" style="stop-color:#EC1C4E"/>
					<stop  offset="1" style="stop-color:#C23592"/>
				</linearGradient>
				<path class="st49" d="M285.81,53.8c-1.18,0.55-2.37,1.09-3.52,1.7l-5.58-11.2c1.22-0.65,2.47-1.22,3.72-1.8L285.81,53.8z"/>
			</g>
			<g>
				<linearGradient id="SVGID_81_" gradientUnits="userSpaceOnUse" x1="-37.568" y1="-60.4815" x2="828.2739" y2="222.5945">
					<stop  offset="0" style="stop-color:#EC1C4E"/>
					<stop  offset="1" style="stop-color:#C23592"/>
				</linearGradient>
				<path class="st50" d="M292.21,50.86c-1.21,0.49-2.38,1.07-3.56,1.61l-5.22-11.37c1.25-0.58,2.49-1.19,3.77-1.7L292.21,50.86z"/>
			</g>
			<g>
				<linearGradient id="SVGID_82_" gradientUnits="userSpaceOnUse" x1="-36.0817" y1="-65.0332" x2="829.7646" y2="218.0443">
					<stop  offset="0" style="stop-color:#EC1C4E"/>
					<stop  offset="1" style="stop-color:#C23592"/>
				</linearGradient>
				<polygon class="st51" points="298.7,48.12 295.1,49.64 290.24,38.11 294.05,36.5 				"/>
			</g>
			<g>
				<linearGradient id="SVGID_83_" gradientUnits="userSpaceOnUse" x1="-34.652" y1="-69.4052" x2="831.195" y2="213.6725">
					<stop  offset="0" style="stop-color:#EC1C4E"/>
					<stop  offset="1" style="stop-color:#C23592"/>
				</linearGradient>
				<polygon class="st52" points="305.29,45.63 301.63,47.01 297.15,35.33 301.02,33.86 				"/>
			</g>
			<g>
				<linearGradient id="SVGID_84_" gradientUnits="userSpaceOnUse" x1="-33.2787" y1="-73.6094" x2="832.5688" y2="209.4685">
					<stop  offset="0" style="stop-color:#EC1C4E"/>
					<stop  offset="1" style="stop-color:#C23592"/>
				</linearGradient>
				<polygon class="st53" points="311.95,43.34 308.24,44.59 304.14,32.76 308.06,31.45 				"/>
			</g>
			<g>
				<linearGradient id="SVGID_85_" gradientUnits="userSpaceOnUse" x1="-31.957" y1="-77.6412" x2="833.8832" y2="205.4343">
					<stop  offset="0" style="stop-color:#EC1C4E"/>
					<stop  offset="1" style="stop-color:#C23592"/>
				</linearGradient>
				<polygon class="st54" points="318.68,41.26 314.93,42.37 311.2,30.42 315.17,29.25 				"/>
			</g>
			<g>
				<linearGradient id="SVGID_86_" gradientUnits="userSpaceOnUse" x1="-30.7026" y1="-81.4914" x2="835.1478" y2="201.5874">
					<stop  offset="0" style="stop-color:#EC1C4E"/>
					<stop  offset="1" style="stop-color:#C23592"/>
				</linearGradient>
				<path class="st55" d="M325.47,39.39c-1.26,0.33-2.54,0.62-3.79,0.98l-3.34-12.06c1.32-0.39,2.67-0.69,4-1.04L325.47,39.39z"/>
			</g>
			<g>
				<linearGradient id="SVGID_87_" gradientUnits="userSpaceOnUse" x1="-29.5054" y1="-85.1511" x2="836.3425" y2="197.9268">
					<stop  offset="0" style="stop-color:#EC1C4E"/>
					<stop  offset="1" style="stop-color:#C23592"/>
				</linearGradient>
				<polygon class="st56" points="332.31,37.73 330.4,38.14 328.5,38.62 325.55,26.46 327.55,25.95 329.58,25.52 				"/>
			</g>
			<g>
				<linearGradient id="SVGID_88_" gradientUnits="userSpaceOnUse" x1="-28.3674" y1="-88.6297" x2="837.4802" y2="194.4482">
					<stop  offset="0" style="stop-color:#EC1C4E"/>
					<stop  offset="1" style="stop-color:#C23592"/>
				</linearGradient>
				<path class="st57" d="M339.21,36.28c-1.28,0.23-2.55,0.53-3.83,0.8l-2.56-12.25c1.35-0.28,2.69-0.6,4.05-0.84L339.21,36.28z"/>
			</g>
			<g>
				<linearGradient id="SVGID_89_" gradientUnits="userSpaceOnUse" x1="-27.2948" y1="-91.9097" x2="838.5508" y2="191.1676">
					<stop  offset="0" style="stop-color:#EC1C4E"/>
					<stop  offset="1" style="stop-color:#C23592"/>
				</linearGradient>
				<polygon class="st58" points="346.15,35.08 342.29,35.75 340.12,23.42 344.19,22.72 				"/>
			</g>
			<g>
				<linearGradient id="SVGID_90_" gradientUnits="userSpaceOnUse" x1="-26.2868" y1="-94.9941" x2="839.5601" y2="188.0835">
					<stop  offset="0" style="stop-color:#EC1C4E"/>
					<stop  offset="1" style="stop-color:#C23592"/>
				</linearGradient>
				<polygon class="st59" points="353.12,34.11 349.24,34.63 347.47,22.24 351.57,21.69 				"/>
			</g>
			<g>
				<linearGradient id="SVGID_91_" gradientUnits="userSpaceOnUse" x1="-25.3402" y1="-97.8903" x2="840.5074" y2="185.1877">
					<stop  offset="0" style="stop-color:#EC1C4E"/>
					<stop  offset="1" style="stop-color:#C23592"/>
				</linearGradient>
				<polygon class="st60" points="360.13,33.35 356.23,33.72 354.85,21.28 358.96,20.89 				"/>
			</g>
			<g>
				<linearGradient id="SVGID_92_" gradientUnits="userSpaceOnUse" x1="-24.4585" y1="-100.5824" x2="841.3869" y2="182.4948">
					<stop  offset="0" style="stop-color:#EC1C4E"/>
					<stop  offset="1" style="stop-color:#C23592"/>
				</linearGradient>
				<path class="st61" d="M367.15,32.81c-1.3,0.09-2.61,0.11-3.91,0.25l-0.99-12.48c1.37-0.14,2.75-0.17,4.12-0.27L367.15,32.81z"/>
			</g>
			<g>
				<linearGradient id="SVGID_93_" gradientUnits="userSpaceOnUse" x1="-23.6462" y1="-103.0715" x2="842.2009" y2="180.0062">
					<stop  offset="0" style="stop-color:#EC1C4E"/>
					<stop  offset="1" style="stop-color:#C23592"/>
				</linearGradient>
				<path class="st62" d="M374.19,32.47c-1.31,0-2.61,0.09-3.91,0.16l-0.59-12.5c1.38-0.08,2.75-0.17,4.13-0.17L374.19,32.47z"/>
			</g>
			<g>
				<linearGradient id="SVGID_94_" gradientUnits="userSpaceOnUse" x1="-22.8963" y1="-105.3648" x2="842.9516" y2="177.7132">
					<stop  offset="0" style="stop-color:#EC1C4E"/>
					<stop  offset="1" style="stop-color:#C23592"/>
				</linearGradient>
				<polygon class="st63" points="381.24,32.35 377.32,32.42 377.12,19.9 381.25,19.83 				"/>
			</g>
			<g>
				<linearGradient id="SVGID_95_" gradientUnits="userSpaceOnUse" x1="-22.2141" y1="-107.4567" x2="843.6367" y2="175.6222">
					<stop  offset="0" style="stop-color:#EC1C4E"/>
					<stop  offset="1" style="stop-color:#C23592"/>
				</linearGradient>
				<polygon class="st64" points="388.28,32.47 384.37,32.4 384.56,19.88 388.69,19.96 				"/>
			</g>
			<g>
				<linearGradient id="SVGID_96_" gradientUnits="userSpaceOnUse" x1="-21.6015" y1="-109.3357" x2="844.2518" y2="173.744">
					<stop  offset="0" style="stop-color:#EC1C4E"/>
					<stop  offset="1" style="stop-color:#C23592"/>
				</linearGradient>
				<polygon class="st65" points="395.32,32.81 391.41,32.61 391.99,20.11 396.12,20.32 				"/>
			</g>
			<g>
				<linearGradient id="SVGID_97_" gradientUnits="userSpaceOnUse" x1="-21.0519" y1="-111.0041" x2="844.7935" y2="172.0731">
					<stop  offset="0" style="stop-color:#EC1C4E"/>
					<stop  offset="1" style="stop-color:#C23592"/>
				</linearGradient>
				<polygon class="st66" points="402.35,33.37 398.44,33.05 399.42,20.57 403.54,20.91 				"/>
			</g>
			<g>
				<linearGradient id="SVGID_98_" gradientUnits="userSpaceOnUse" x1="-20.5724" y1="-112.4611" x2="845.268" y2="170.6144">
					<stop  offset="0" style="stop-color:#EC1C4E"/>
					<stop  offset="1" style="stop-color:#C23592"/>
				</linearGradient>
				<polygon class="st67" points="409.35,34.15 405.46,33.71 406.83,21.27 410.93,21.73 				"/>
			</g>
			<g>
				<linearGradient id="SVGID_99_" gradientUnits="userSpaceOnUse" x1="-20.1737" y1="-113.7077" x2="845.6828" y2="169.3731">
					<stop  offset="0" style="stop-color:#EC1C4E"/>
					<stop  offset="1" style="stop-color:#C23592"/>
				</linearGradient>
				<polygon class="st68" points="416.32,35.15 412.45,34.59 414.21,22.2 418.3,22.79 				"/>
			</g>
			<g>
				<linearGradient id="SVGID_100_" gradientUnits="userSpaceOnUse" x1="-19.834" y1="-114.7344" x2="846.0146" y2="168.3438">
					<stop  offset="0" style="stop-color:#EC1C4E"/>
					<stop  offset="1" style="stop-color:#C23592"/>
				</linearGradient>
				<polygon class="st69" points="423.26,36.37 419.4,35.69 421.56,23.36 425.63,24.08 				"/>
			</g>
			<g>
				<linearGradient id="SVGID_101_" gradientUnits="userSpaceOnUse" x1="-19.5716" y1="-115.5457" x2="846.2816" y2="167.5341">
					<stop  offset="0" style="stop-color:#EC1C4E"/>
					<stop  offset="1" style="stop-color:#C23592"/>
				</linearGradient>
				<polygon class="st70" points="430.15,37.82 426.32,37.01 428.87,24.76 432.92,25.61 				"/>
			</g>
			<g>
				<linearGradient id="SVGID_102_" gradientUnits="userSpaceOnUse" x1="-19.3767" y1="-116.1341" x2="846.4731" y2="166.9445">
					<stop  offset="0" style="stop-color:#EC1C4E"/>
					<stop  offset="1" style="stop-color:#C23592"/>
				</linearGradient>
				<polygon class="st71" points="436.99,39.49 433.19,38.56 436.13,26.39 440.15,27.37 				"/>
			</g>
			<g>
				<linearGradient id="SVGID_103_" gradientUnits="userSpaceOnUse" x1="-19.2545" y1="-116.5026" x2="846.592" y2="166.575">
					<stop  offset="0" style="stop-color:#EC1C4E"/>
					<stop  offset="1" style="stop-color:#C23592"/>
				</linearGradient>
				<path class="st72" d="M443.78,41.37c-1.25-0.37-2.51-0.7-3.77-1.05l3.33-12.07c1.33,0.37,2.66,0.72,3.98,1.11L443.78,41.37z"/>
			</g>
			<g>
				<linearGradient id="SVGID_104_" gradientUnits="userSpaceOnUse" x1="-19.2065" y1="-116.6532" x2="846.6413" y2="166.4247">
					<stop  offset="0" style="stop-color:#EC1C4E"/>
					<stop  offset="1" style="stop-color:#C23592"/>
				</linearGradient>
				<path class="st73" d="M450.5,43.48c-1.23-0.42-2.49-0.78-3.73-1.18l3.71-11.95c1.31,0.42,2.64,0.8,3.94,1.24L450.5,43.48z"/>
			</g>
			<g>
				<linearGradient id="SVGID_105_" gradientUnits="userSpaceOnUse" x1="-19.2283" y1="-116.5818" x2="846.6176" y2="166.4955">
					<stop  offset="0" style="stop-color:#EC1C4E"/>
					<stop  offset="1" style="stop-color:#C23592"/>
				</linearGradient>
				<path class="st74" d="M457.15,45.79c-1.22-0.47-2.46-0.86-3.69-1.3l4.09-11.83c1.3,0.46,2.62,0.87,3.9,1.37L457.15,45.79z"/>
			</g>
			<g>
				<linearGradient id="SVGID_106_" gradientUnits="userSpaceOnUse" x1="-19.3228" y1="-116.2931" x2="846.5234" y2="166.7844">
					<stop  offset="0" style="stop-color:#EC1C4E"/>
					<stop  offset="1" style="stop-color:#C23592"/>
				</linearGradient>
				<path class="st75" d="M463.72,48.32c-1.2-0.52-2.43-0.95-3.65-1.42l4.47-11.69c1.29,0.5,2.59,0.95,3.85,1.5L463.72,48.32z"/>
			</g>
			<g>
				<linearGradient id="SVGID_107_" gradientUnits="userSpaceOnUse" x1="-19.4834" y1="-115.7827" x2="846.3528" y2="167.2915">
					<stop  offset="0" style="stop-color:#EC1C4E"/>
					<stop  offset="1" style="stop-color:#C23592"/>
				</linearGradient>
				<path class="st76" d="M470.21,51.06c-1.18-0.55-2.39-1.04-3.6-1.54l4.84-11.54c1.27,0.53,2.55,1.04,3.8,1.63L470.21,51.06z"/>
			</g>
			<g>
				<linearGradient id="SVGID_108_" gradientUnits="userSpaceOnUse" x1="-19.7235" y1="-115.0559" x2="846.1169" y2="168.0196">
					<stop  offset="0" style="stop-color:#EC1C4E"/>
					<stop  offset="1" style="stop-color:#C23592"/>
				</linearGradient>
				<path class="st77" d="M476.61,54.01c-1.17-0.59-2.35-1.13-3.54-1.66l5.21-11.38c1.26,0.56,2.51,1.13,3.75,1.75L476.61,54.01z"/>
			</g>
			<g>
				<linearGradient id="SVGID_109_" gradientUnits="userSpaceOnUse" x1="-20.038" y1="-114.1123" x2="845.8116" y2="168.9663">
					<stop  offset="0" style="stop-color:#EC1C4E"/>
					<stop  offset="1" style="stop-color:#C23592"/>
				</linearGradient>
				<path class="st78" d="M482.91,57.15c-1.15-0.62-2.31-1.21-3.49-1.77l5.57-11.21c1.24,0.59,2.47,1.22,3.69,1.87L482.91,57.15z"/>
			</g>
			<g>
				<linearGradient id="SVGID_110_" gradientUnits="userSpaceOnUse" x1="-20.4154" y1="-112.9408" x2="845.4257" y2="170.135">
					<stop  offset="0" style="stop-color:#EC1C4E"/>
					<stop  offset="1" style="stop-color:#C23592"/>
				</linearGradient>
				<path class="st79" d="M489.1,60.51c-1.13-0.65-2.26-1.31-3.42-1.9l5.92-11.03c1.23,0.62,2.42,1.32,3.61,2.01L489.1,60.51z"/>
			</g>
			<g>
				<linearGradient id="SVGID_111_" gradientUnits="userSpaceOnUse" x1="-20.8701" y1="-111.5638" x2="844.9779" y2="171.5143">
					<stop  offset="0" style="stop-color:#EC1C4E"/>
					<stop  offset="1" style="stop-color:#C23592"/>
				</linearGradient>
				<polygon class="st80" points="495.21,64.02 491.82,62.07 498.09,51.24 501.67,53.3 				"/>
			</g>
			<g>
				<linearGradient id="SVGID_112_" gradientUnits="userSpaceOnUse" x1="-21.3956" y1="-109.9575" x2="844.4517" y2="173.1203">
					<stop  offset="0" style="stop-color:#EC1C4E"/>
					<stop  offset="1" style="stop-color:#C23592"/>
				</linearGradient>
				<polygon class="st81" points="501.16,67.79 497.86,65.69 504.47,55.07 507.96,57.28 				"/>
			</g>
			<g>
				<linearGradient id="SVGID_113_" gradientUnits="userSpaceOnUse" x1="-21.9769" y1="-108.1675" x2="843.8652" y2="174.9086">
					<stop  offset="0" style="stop-color:#EC1C4E"/>
					<stop  offset="1" style="stop-color:#C23592"/>
				</linearGradient>
				<polygon class="st82" points="507.01,71.72 503.8,69.47 510.75,59.06 514.14,61.43 				"/>
			</g>
			<g>
				<linearGradient id="SVGID_114_" gradientUnits="userSpaceOnUse" x1="-22.6384" y1="-106.1492" x2="843.206" y2="176.9277">
					<stop  offset="0" style="stop-color:#EC1C4E"/>
					<stop  offset="1" style="stop-color:#C23592"/>
				</linearGradient>
				<path class="st83" d="M512.75,75.8c-1.02-0.81-2.1-1.55-3.17-2.29l7.27-10.19c1.13,0.79,2.27,1.57,3.35,2.42L512.75,75.8z"/>
			</g>
			<g>
				<linearGradient id="SVGID_115_" gradientUnits="userSpaceOnUse" x1="-23.3633" y1="-103.9242" x2="842.4778" y2="179.1516">
					<stop  offset="0" style="stop-color:#EC1C4E"/>
					<stop  offset="1" style="stop-color:#C23592"/>
				</linearGradient>
				<polygon class="st84" points="518.35,80.08 515.24,77.7 522.83,67.75 526.12,70.26 				"/>
			</g>
			<g>
				<linearGradient id="SVGID_116_" gradientUnits="userSpaceOnUse" x1="-24.16" y1="-101.4932" x2="841.6841" y2="181.5835">
					<stop  offset="0" style="stop-color:#EC1C4E"/>
					<stop  offset="1" style="stop-color:#C23592"/>
				</linearGradient>
				<polygon class="st85" points="523.79,84.56 520.78,82.05 528.69,72.34 531.86,74.99 				"/>
			</g>
			<g>
				<linearGradient id="SVGID_117_" gradientUnits="userSpaceOnUse" x1="-25.0131" y1="-98.875" x2="840.8262" y2="184.2002">
					<stop  offset="0" style="stop-color:#EC1C4E"/>
					<stop  offset="1" style="stop-color:#C23592"/>
				</linearGradient>
				<path class="st86" d="M529.1,89.19c-0.97-0.87-1.91-1.78-2.91-2.62l8.21-9.45c1.05,0.89,2.05,1.85,3.07,2.77L529.1,89.19z"/>
			</g>
			<g>
				<linearGradient id="SVGID_118_" gradientUnits="userSpaceOnUse" x1="-25.9445" y1="-96.0466" x2="839.9046" y2="187.0317">
					<stop  offset="0" style="stop-color:#EC1C4E"/>
					<stop  offset="1" style="stop-color:#C23592"/>
				</linearGradient>
				<path class="st87" d="M534.28,93.96c-0.92-0.93-1.92-1.77-2.87-2.66l8.5-9.19c1.01,0.94,2.06,1.83,3.03,2.81L534.28,93.96z"/>
			</g>
			<g>
				<linearGradient id="SVGID_119_" gradientUnits="userSpaceOnUse" x1="-26.9316" y1="-93.0101" x2="838.9099" y2="190.0658">
					<stop  offset="0" style="stop-color:#EC1C4E"/>
					<stop  offset="1" style="stop-color:#C23592"/>
				</linearGradient>
				<polygon class="st88" points="539.28,98.92 536.5,96.16 545.29,87.25 548.22,90.17 				"/>
			</g>
			<g>
				<linearGradient id="SVGID_120_" gradientUnits="userSpaceOnUse" x1="-27.9838" y1="-89.7933" x2="837.8595" y2="193.2832">
					<stop  offset="0" style="stop-color:#EC1C4E"/>
					<stop  offset="1" style="stop-color:#C23592"/>
				</linearGradient>
				<polygon class="st89" points="544.11,104.05 541.46,101.17 550.52,92.54 553.33,95.58 				"/>
			</g>
			<g>
				<linearGradient id="SVGID_121_" gradientUnits="userSpaceOnUse" x1="-29.1015" y1="-86.3891" x2="836.7466" y2="196.689">
					<stop  offset="0" style="stop-color:#EC1C4E"/>
					<stop  offset="1" style="stop-color:#C23592"/>
				</linearGradient>
				<path class="st90" d="M548.8,109.3c-0.85-0.99-1.66-2.01-2.57-2.95l9.33-8.34c0.95,1,1.82,2.07,2.71,3.12L548.8,109.3z"/>
			</g>
			<g>
				<linearGradient id="SVGID_122_" gradientUnits="userSpaceOnUse" x1="-30.2772" y1="-82.7976" x2="835.5727" y2="200.2811">
					<stop  offset="0" style="stop-color:#EC1C4E"/>
					<stop  offset="1" style="stop-color:#C23592"/>
				</linearGradient>
				<polygon class="st91" points="553.35,114.68 550.83,111.69 560.42,103.65 563.08,106.81 				"/>
			</g>
			<g>
				<linearGradient id="SVGID_123_" gradientUnits="userSpaceOnUse" x1="-31.5186" y1="-79.0018" x2="834.3328" y2="204.0773">
					<stop  offset="0" style="stop-color:#EC1C4E"/>
					<stop  offset="1" style="stop-color:#C23592"/>
				</linearGradient>
				<polygon class="st92" points="557.66,120.26 555.27,117.16 565.11,109.43 567.64,112.7 				"/>
			</g>
			<g>
				<linearGradient id="SVGID_124_" gradientUnits="userSpaceOnUse" x1="-32.8024" y1="-75.0469" x2="833.0363" y2="208.028">
					<stop  offset="0" style="stop-color:#EC1C4E"/>
					<stop  offset="1" style="stop-color:#C23592"/>
				</linearGradient>
				<polygon class="st93" points="561.82,125.94 559.56,122.75 569.64,115.33 572.03,118.7 				"/>
			</g>
			<g>
				<linearGradient id="SVGID_125_" gradientUnits="userSpaceOnUse" x1="-34.159" y1="-70.9083" x2="831.684" y2="212.1681">
					<stop  offset="0" style="stop-color:#EC1C4E"/>
					<stop  offset="1" style="stop-color:#C23592"/>
				</linearGradient>
				<polygon class="st94" points="565.82,131.74 564.76,130.1 563.63,128.5 573.94,121.41 575.13,123.09 576.25,124.83 				"/>
			</g>
			<g>
				<linearGradient id="SVGID_126_" gradientUnits="userSpaceOnUse" x1="-35.5699" y1="-66.5981" x2="830.2761" y2="216.4792">
					<stop  offset="0" style="stop-color:#EC1C4E"/>
					<stop  offset="1" style="stop-color:#C23592"/>
				</linearGradient>
				<polygon class="st95" points="569.63,137.67 567.51,134.38 578.04,127.61 580.28,131.09 				"/>
			</g>
			<g>
				<linearGradient id="SVGID_127_" gradientUnits="userSpaceOnUse" x1="-37.0369" y1="-62.1124" x2="828.8094" y2="220.965">
					<stop  offset="0" style="stop-color:#EC1C4E"/>
					<stop  offset="1" style="stop-color:#C23592"/>
				</linearGradient>
				<polygon class="st96" points="573.21,143.74 571.24,140.35 581.98,133.93 584.06,137.5 				"/>
			</g>
			<g>
				<linearGradient id="SVGID_128_" gradientUnits="userSpaceOnUse" x1="-38.5526" y1="-57.4818" x2="827.2954" y2="225.5962">
					<stop  offset="0" style="stop-color:#EC1C4E"/>
					<stop  offset="1" style="stop-color:#C23592"/>
				</linearGradient>
				<path class="st97" d="M576.62,149.9c-0.61-1.15-1.2-2.32-1.83-3.46l10.94-6.08c0.66,1.21,1.29,2.44,1.94,3.65L576.62,149.9z"/>
			</g>
			<g>
				<linearGradient id="SVGID_129_" gradientUnits="userSpaceOnUse" x1="-40.1224" y1="-52.6756" x2="825.7241" y2="230.4019">
					<stop  offset="0" style="stop-color:#EC1C4E"/>
					<stop  offset="1" style="stop-color:#C23592"/>
				</linearGradient>
				<path class="st98" d="M579.86,156.15c-0.53-1.19-1.19-2.32-1.78-3.48l11.13-5.73c0.62,1.23,1.32,2.42,1.88,3.68L579.86,156.15z"
					/>
			</g>
			<g>
				<linearGradient id="SVGID_130_" gradientUnits="userSpaceOnUse" x1="-41.745" y1="-47.7116" x2="824.1019" y2="235.3661">
					<stop  offset="0" style="stop-color:#EC1C4E"/>
					<stop  offset="1" style="stop-color:#C23592"/>
				</linearGradient>
				<polygon class="st99" points="582.86,162.52 581.19,158.98 592.49,153.61 594.26,157.36 				"/>
			</g>
			<g>
				<linearGradient id="SVGID_131_" gradientUnits="userSpaceOnUse" x1="-43.4145" y1="-42.606" x2="822.4323" y2="240.4716">
					<stop  offset="0" style="stop-color:#EC1C4E"/>
					<stop  offset="1" style="stop-color:#C23592"/>
				</linearGradient>
				<polygon class="st100" points="585.64,168.99 584.13,165.38 595.6,160.38 597.2,164.19 				"/>
			</g>
			<g>
				<linearGradient id="SVGID_132_" gradientUnits="userSpaceOnUse" x1="-45.1258" y1="-37.3698" x2="820.7191" y2="245.7072">
					<stop  offset="0" style="stop-color:#EC1C4E"/>
					<stop  offset="1" style="stop-color:#C23592"/>
				</linearGradient>
				<path class="st101" d="M588.29,175.52c-0.46-1.22-0.93-2.44-1.44-3.64l11.63-4.64c0.54,1.27,1.03,2.56,1.52,3.85L588.29,175.52z
					"/>
			</g>
			<g>
				<linearGradient id="SVGID_133_" gradientUnits="userSpaceOnUse" x1="-46.8867" y1="-31.9855" x2="818.96" y2="251.0921">
					<stop  offset="0" style="stop-color:#EC1C4E"/>
					<stop  offset="1" style="stop-color:#C23592"/>
				</linearGradient>
				<polygon class="st102" points="590.68,182.15 589.38,178.45 601.14,174.19 602.52,178.09 				"/>
			</g>
			<g>
				<linearGradient id="SVGID_134_" gradientUnits="userSpaceOnUse" x1="-48.6914" y1="-26.4579" x2="817.1513" y2="256.6184">
					<stop  offset="0" style="stop-color:#EC1C4E"/>
					<stop  offset="1" style="stop-color:#C23592"/>
				</linearGradient>
				<polygon class="st103" points="592.85,188.84 591.67,185.11 603.57,181.23 604.81,185.17 				"/>
			</g>
			<g>
				<linearGradient id="SVGID_135_" gradientUnits="userSpaceOnUse" x1="-50.5392" y1="-20.8017" x2="815.3023" y2="262.2742">
					<stop  offset="0" style="stop-color:#EC1C4E"/>
					<stop  offset="1" style="stop-color:#C23592"/>
				</linearGradient>
				<polygon class="st104" points="594.81,195.61 593.75,191.84 605.76,188.34 606.88,192.32 				"/>
			</g>
			<g>
				<linearGradient id="SVGID_136_" gradientUnits="userSpaceOnUse" x1="-52.435" y1="-15.0226" x2="813.4158" y2="268.0564">
					<stop  offset="0" style="stop-color:#EC1C4E"/>
					<stop  offset="1" style="stop-color:#C23592"/>
				</linearGradient>
				<path class="st105" d="M596.54,202.44c-0.29-1.27-0.62-2.53-0.94-3.8l12.12-3.11c0.34,1.34,0.68,2.67,0.99,4.01L596.54,202.44z"
					/>
			</g>
			<g>
				<linearGradient id="SVGID_137_" gradientUnits="userSpaceOnUse" x1="-54.3597" y1="-9.1264" x2="811.4868" y2="273.9511">
					<stop  offset="0" style="stop-color:#EC1C4E"/>
					<stop  offset="1" style="stop-color:#C23592"/>
				</linearGradient>
				<path class="st106" d="M598.06,209.31c-0.25-1.28-0.54-2.55-0.82-3.83l12.22-2.72c0.29,1.35,0.6,2.69,0.86,4.04L598.06,209.31z"
					/>
			</g>
			<g>
				<linearGradient id="SVGID_138_" gradientUnits="userSpaceOnUse" x1="-56.3224" y1="-3.1202" x2="809.5223" y2="279.9568">
					<stop  offset="0" style="stop-color:#EC1C4E"/>
					<stop  offset="1" style="stop-color:#C23592"/>
				</linearGradient>
				<path class="st107" d="M599.36,216.24c-0.21-1.29-0.46-2.57-0.69-3.85l12.3-2.33c0.25,1.36,0.51,2.71,0.73,4.07L599.36,216.24z"
					/>
			</g>
			<g>
				<linearGradient id="SVGID_139_" gradientUnits="userSpaceOnUse" x1="-58.3188" y1="2.9905" x2="807.5247" y2="286.0671">
					<stop  offset="0" style="stop-color:#EC1C4E"/>
					<stop  offset="1" style="stop-color:#C23592"/>
				</linearGradient>
				<path class="st108" d="M600.44,223.2c-0.17-1.29-0.38-2.58-0.57-3.87l12.36-1.94c0.21,1.36,0.43,2.72,0.6,4.09L600.44,223.2z"/>
			</g>
			<g>
				<linearGradient id="SVGID_140_" gradientUnits="userSpaceOnUse" x1="-60.3519" y1="9.1975" x2="805.4959" y2="292.2755">
					<stop  offset="0" style="stop-color:#EC1C4E"/>
					<stop  offset="1" style="stop-color:#C23592"/>
				</linearGradient>
				<path class="st109" d="M601.3,230.19c-0.12-1.3-0.3-2.59-0.45-3.89l12.42-1.54c0.16,1.37,0.34,2.74,0.47,4.11L601.3,230.19z"/>
			</g>
			<g>
				<linearGradient id="SVGID_141_" gradientUnits="userSpaceOnUse" x1="-62.4111" y1="15.4971" x2="803.4376" y2="298.5753">
					<stop  offset="0" style="stop-color:#EC1C4E"/>
					<stop  offset="1" style="stop-color:#C23592"/>
				</linearGradient>
				<path class="st110" d="M601.93,237.21c-0.08-1.3-0.22-2.6-0.32-3.9l12.46-1.15c0.11,1.37,0.26,2.74,0.34,4.12L601.93,237.21z"/>
			</g>
			<g>
				<linearGradient id="SVGID_142_" gradientUnits="userSpaceOnUse" x1="-64.4974" y1="21.8814" x2="801.3493" y2="304.959">
					<stop  offset="0" style="stop-color:#EC1C4E"/>
					<stop  offset="1" style="stop-color:#C23592"/>
				</linearGradient>
				<path class="st111" d="M602.35,244.24c-0.05-1.3-0.14-2.61-0.2-3.91l12.49-0.76c0.07,1.38,0.16,2.75,0.21,4.13L602.35,244.24z"
					/>
			</g>
			<g>
				<linearGradient id="SVGID_143_" gradientUnits="userSpaceOnUse" x1="-66.6105" y1="28.3431" x2="799.2362" y2="311.4207">
					<stop  offset="0" style="stop-color:#EC1C4E"/>
					<stop  offset="1" style="stop-color:#C23592"/>
				</linearGradient>
				<polygon class="st112" points="602.54,251.28 602.46,247.37 614.97,247.01 615.05,251.14 				"/>
			</g>
		</g>
		<circle class="st113" cx="377.69" cy="255.87" r="207.28"/>
		<g class="st21">
			<g class="st114">
				<linearGradient id="SVGID_144_" gradientUnits="userSpaceOnUse" x1="105.7799" y1="70.2415" x2="1311.9315" y2="956.3938">
					<stop  offset="0" style="stop-color:#1E3668"/>
					<stop  offset="0.505" style="stop-color:#161548"/>
					<stop  offset="1" style="stop-color:#0D0D19"/>
				</linearGradient>
				<path class="st115" d="M244.81,355.79c-23.19-29.62-35.44-65.21-35.44-102.92c0-92.16,74.97-167.13,167.13-167.13v7.16
					c-88.21,0-159.97,71.76-159.97,159.97c0,36.09,11.73,70.15,33.92,98.51L244.81,355.79z"/>
			</g>
			<g class="st114">
				<linearGradient id="SVGID_145_" gradientUnits="userSpaceOnUse" x1="99.9771" y1="78.1392" x2="1306.1274" y2="964.2905">
					<stop  offset="0" style="stop-color:#1E3668"/>
					<stop  offset="0.505" style="stop-color:#161548"/>
					<stop  offset="1" style="stop-color:#0D0D19"/>
				</linearGradient>
				<path class="st116" d="M381.54,422.37c-2.93,0-5.85-0.08-8.81-0.23l0.37-7.15c88.08,4.59,163.49-63.33,168.09-151.42l7.15,0.37
					C543.7,353.02,469.74,422.37,381.54,422.37z"/>
			</g>
			<g>
				<g>
					<path class="st22" d="M367.46,398.87l4.1,0.44l2.05,0.22c0.69,0.04,1.37,0.05,2.06,0.08l-0.2,3.43
						c-0.7-0.03-1.41-0.04-2.11-0.08l-2.1-0.22l-4.2-0.45L367.46,398.87z"/>
				</g>
				<g>
					<path class="st22" d="M351.22,396.04c2.65,0.76,5.38,1.14,8.08,1.64l-0.59,3.38c-2.77-0.51-5.56-0.91-8.28-1.68L351.22,396.04z
						"/>
				</g>
				<g>
					<polygon class="st22" points="335.4,391.38 343.24,393.95 342.26,397.24 334.23,394.61 					"/>
				</g>
				<g>
					<path class="st22" d="M320.29,384.78l3.71,1.81l1.85,0.9c0.62,0.31,1.27,0.53,1.9,0.8l-1.36,3.15
						c-0.65-0.28-1.32-0.51-1.95-0.82l-1.9-0.93l-3.8-1.85L320.29,384.78z"/>
				</g>
				<g>
					<path class="st22" d="M306.02,376.52c1.15,0.76,2.28,1.54,3.44,2.28l3.58,2.06l-1.72,2.97l-3.66-2.11
						c-1.19-0.75-2.35-1.56-3.52-2.33L306.02,376.52z"/>
				</g>
				<g>
					<path class="st22" d="M292.78,366.7c1,0.94,2.14,1.73,3.21,2.58l3.27,2.52l-2.05,2.75l-3.35-2.58
						c-1.1-0.87-2.26-1.68-3.29-2.65L292.78,366.7z"/>
				</g>
				<g>
					<polygon class="st22" points="280.79,355.37 286.59,361.24 284.23,363.73 278.29,357.73 					"/>
				</g>
				<g>
					<path class="st22" d="M270.21,342.72c1.68,2.17,3.24,4.45,5.11,6.48l-2.63,2.21c-1.91-2.08-3.51-4.4-5.23-6.63L270.21,342.72z"
						/>
				</g>
				<g>
					<polygon class="st22" points="261.13,328.96 262.15,330.76 262.65,331.65 263.22,332.52 265.48,335.97 262.61,337.86 
						260.29,334.32 259.72,333.44 259.2,332.52 258.16,330.68 					"/>
				</g>
				<g>
					<path class="st22" d="M253.67,314.25c0.53,1.27,1.11,2.52,1.69,3.76c0.56,1.25,1.18,2.48,1.8,3.71l-3.07,1.54
						c-0.63-1.26-1.26-2.52-1.84-3.8c-0.6-1.28-1.19-2.55-1.73-3.85L253.67,314.25z"/>
				</g>
				<g>
					<path class="st22" d="M248.03,298.76c0.37,1.32,0.81,2.63,1.24,3.93c0.41,1.31,0.89,2.6,1.35,3.9l-3.23,1.18
						c-0.48-1.32-0.96-2.65-1.39-3.99c-0.44-1.34-0.89-2.67-1.27-4.03L248.03,298.76z"/>
				</g>
				<g>
					<path class="st22" d="M244.24,282.71c0.47,2.71,1.02,5.41,1.66,8.08l-3.34,0.79c-0.65-2.74-1.22-5.5-1.7-8.28L244.24,282.71z"
						/>
				</g>
				<g>
					<path class="st22" d="M242.34,266.33c0.17,2.75,0.4,5.49,0.71,8.22l-3.41,0.39c-0.33-2.8-0.56-5.61-0.73-8.42L242.34,266.33z"
						/>
				</g>
			</g>
			<g>
				<g>
					<path class="st22" d="M444.26,112.25c-2.58-0.99-5.21-1.84-7.82-2.77l1.05-3.27c2.67,0.95,5.36,1.83,8.01,2.84L444.26,112.25z"
						/>
				</g>
				<g>
					<path class="st22" d="M459.33,119.16c-1.2-0.69-2.45-1.28-3.7-1.88l-3.74-1.8l1.43-3.13l3.83,1.84
						c1.28,0.61,2.56,1.21,3.79,1.92L459.33,119.16z"/>
				</g>
				<g>
					<path class="st22" d="M473.5,127.77c-2.22-1.65-4.62-3.03-6.96-4.51l1.78-2.94c2.39,1.52,4.85,2.94,7.12,4.62L473.5,127.77z"/>
				</g>
				<g>
					<path class="st22" d="M486.56,137.98c-1.04-0.91-2.06-1.84-3.13-2.73l-3.26-2.57l2.11-2.71l3.34,2.63
						c1.09,0.91,2.13,1.86,3.2,2.79L486.56,137.98z"/>
				</g>
				<g>
					<path class="st22" d="M498.36,149.62l-2.8-3.06c-0.92-1.03-1.96-1.95-2.93-2.93l2.41-2.45c1,1,2.05,1.95,3,3.01l2.87,3.13
						L498.36,149.62z"/>
				</g>
				<g>
					<polygon class="st22" points="508.74,162.55 506.29,159.21 505.06,157.54 503.74,155.94 506.42,153.79 507.77,155.43 
						509.03,157.14 511.54,160.56 					"/>
				</g>
				<g>
					<path class="st22" d="M517.55,176.6c-1.41-2.38-2.72-4.82-4.2-7.15l2.91-1.82c1.52,2.39,2.86,4.89,4.3,7.33L517.55,176.6z"/>
				</g>
			</g>
		</g>
		<g class="st21">
			<image style="overflow:visible;" width="30" height="35" xlink:href="B5ADB35D.png"  transform="matrix(1 0 0 1 94.5932 64)">
			</image>
			<image style="overflow:visible;" width="30" height="35" xlink:href="B5ADB363.png"  transform="matrix(1 0 0 1 126.5932 64)">
			</image>
			<image style="overflow:visible;" width="30" height="35" xlink:href="B5ADB365.png"  transform="matrix(1 0 0 1 158.5932 64)">
			</image>
			<image style="overflow:visible;" width="30" height="35" xlink:href="B5ADB367.png"  transform="matrix(1 0 0 1 190.5932 64)">
			</image>
		</g>
		<g class="st21">
			<image style="overflow:visible;" width="30" height="35" xlink:href="B5ADB364.png"  transform="matrix(1 0 0 1 494.5932 388)">
			</image>
			<image style="overflow:visible;" width="30" height="35" xlink:href="B5ADB36C.png"  transform="matrix(1 0 0 1 526.5932 388)">
			</image>
			<image style="overflow:visible;" width="30" height="35" xlink:href="B5ADB36D.png"  transform="matrix(1 0 0 1 558.5932 388)">
			</image>
			<image style="overflow:visible;" width="30" height="35" xlink:href="B5ADB36F.png"  transform="matrix(1 0 0 1 590.5932 388)">
			</image>
		</g>
		<g class="st21">
			<g>
				<g>
					<g class="st117">
						<polygon class="st118" points="502.76,225.79 601.76,225.79 621.71,184.36 521.23,184.36 						"/>
					</g>
					<g>
						<polygon class="st119" points="497.75,220.78 596.75,220.78 616.7,179.35 516.22,179.35 						"/>
					</g>
				</g>
				<text transform="matrix(1 0 0 1 525.7344 207.457)" class="st22 st120 st121">VOICE</text>
				<path class="st22" d="M524.05,198.86c0,1.73-1.4,3.13-3.13,3.13s-3.13-1.4-3.13-3.13c0-1.73,1.4-3.13,3.13-3.13
					S524.05,197.13,524.05,198.86z"/>
			</g>
			<g>
				<polygon class="st22" points="590.46,322.23 178.37,322.23 210.91,220.78 623,220.78 				"/>
				<text transform="matrix(1 0 0 1 248.3272 304.7324)" class="st122 st120 st123">news</text>
			</g>
			<g>
				
					<image style="overflow:visible;opacity:0.15;" width="237" height="89" xlink:href="421AECCC.png"  transform="matrix(1 0 0 1 117.8357 155.2425)">
				</image>
				<g>
					<g>
						<polygon class="st119" points="314.89,234.55 117,234.55 147.06,154.4 344.95,154.4 						"/>
						<text transform="matrix(1 0 0 1 180.7207 206.9971)" class="st22 st124 st125">YOUR</text>
					</g>
				</g>
			</g>
		</g>
		
			<radialGradient id="SVGID_146_" cx="1618.0804" cy="-6754.3467" r="94.5928" gradientTransform="matrix(1.6329 0.0227 -0.1595 0.174 -3477.2395 1287.5369)" gradientUnits="userSpaceOnUse">
			<stop  offset="0" style="stop-color:#FFFFFF"/>
			<stop  offset="0.0979" style="stop-color:#DCEDFF;stop-opacity:0.9021"/>
			<stop  offset="0.2788" style="stop-color:#A1D0FF;stop-opacity:0.7212"/>
			<stop  offset="0.4535" style="stop-color:#6FB7FF;stop-opacity:0.5465"/>
			<stop  offset="0.6173" style="stop-color:#49A4FF;stop-opacity:0.3827"/>
			<stop  offset="0.7677" style="stop-color:#2E96FF;stop-opacity:0.2323"/>
			<stop  offset="0.9" style="stop-color:#1D8EFF;stop-opacity:0.1"/>
			<stop  offset="1" style="stop-color:#178BFF;stop-opacity:0"/>
		</radialGradient>
		<path class="st126" d="M404,147.81c0.1,10.22-78.65,19.26-175.9,20.2c-97.24,0.93-176.15-6.59-176.25-16.81
			c-0.1-10.22,78.65-19.26,175.9-20.19C324.99,130.07,403.9,137.59,404,147.81z"/>
		
			<radialGradient id="SVGID_147_" cx="1668.2491" cy="-6448.3555" r="94.5978" gradientTransform="matrix(2.5411 0.0309 -0.2485 0.251 -5621.2134 1723.7485)" gradientUnits="userSpaceOnUse">
			<stop  offset="0" style="stop-color:#FFFFFF"/>
			<stop  offset="0.0979" style="stop-color:#DCEDFF;stop-opacity:0.9021"/>
			<stop  offset="0.2788" style="stop-color:#A1D0FF;stop-opacity:0.7212"/>
			<stop  offset="0.4535" style="stop-color:#6FB7FF;stop-opacity:0.5465"/>
			<stop  offset="0.6173" style="stop-color:#49A4FF;stop-opacity:0.3827"/>
			<stop  offset="0.7677" style="stop-color:#2E96FF;stop-opacity:0.2323"/>
			<stop  offset="0.9" style="stop-color:#1D8EFF;stop-opacity:0.1"/>
			<stop  offset="1" style="stop-color:#178BFF;stop-opacity:0"/>
		</radialGradient>
		<path class="st127" d="M471.74,155.33c0.14,14.73-122.42,27.85-273.74,29.3c-151.33,1.45-274.11-9.31-274.25-24.04
			c-0.14-14.73,122.42-27.85,273.74-29.3C348.81,129.84,471.6,140.6,471.74,155.33z"/>
		
			<radialGradient id="SVGID_148_" cx="1799.9896" cy="-5723.1074" r="94.5905" gradientTransform="matrix(1.7271 0.0417 -0.1683 0.2551 -3526.9097 1713.6541)" gradientUnits="userSpaceOnUse">
			<stop  offset="0" style="stop-color:#FFFFFF"/>
			<stop  offset="0.0979" style="stop-color:#DCEDFF;stop-opacity:0.9021"/>
			<stop  offset="0.2788" style="stop-color:#A1D0FF;stop-opacity:0.7212"/>
			<stop  offset="0.4535" style="stop-color:#6FB7FF;stop-opacity:0.5465"/>
			<stop  offset="0.6173" style="stop-color:#49A4FF;stop-opacity:0.3827"/>
			<stop  offset="0.7677" style="stop-color:#2E96FF;stop-opacity:0.2323"/>
			<stop  offset="0.9" style="stop-color:#1D8EFF;stop-opacity:0.1"/>
			<stop  offset="1" style="stop-color:#178BFF;stop-opacity:0"/>
		</radialGradient>
		<path class="st128" d="M716.23,328.21c0.13,15.03-83.14,27.92-185.98,28.8c-102.84,0.88-186.32-10.6-186.45-25.62
			c-0.13-15.03,83.14-27.92,185.98-28.8C632.62,301.71,716.1,313.18,716.23,328.21z"/>
		
			<radialGradient id="SVGID_149_" cx="1699.5487" cy="-5710.5322" r="94.5968" gradientTransform="matrix(3.38 0.0293 -0.3314 0.264 -7187.9038 1785.6147)" gradientUnits="userSpaceOnUse">
			<stop  offset="0" style="stop-color:#FFFFFF"/>
			<stop  offset="0.0979" style="stop-color:#DCEDFF;stop-opacity:0.9021"/>
			<stop  offset="0.2788" style="stop-color:#A1D0FF;stop-opacity:0.7212"/>
			<stop  offset="0.4535" style="stop-color:#6FB7FF;stop-opacity:0.5465"/>
			<stop  offset="0.6173" style="stop-color:#49A4FF;stop-opacity:0.3827"/>
			<stop  offset="0.7677" style="stop-color:#2E96FF;stop-opacity:0.2323"/>
			<stop  offset="0.9" style="stop-color:#1D8EFF;stop-opacity:0.1"/>
			<stop  offset="1" style="stop-color:#178BFF;stop-opacity:0"/>
		</radialGradient>
		<path class="st129" d="M783.76,325.98c0.13,15.47-162.94,29.41-364.24,31.13c-201.3,1.72-364.58-9.44-364.72-24.91
			c-0.13-15.47,162.94-29.41,364.24-31.13C620.34,299.35,783.63,310.51,783.76,325.98z"/>
	</g>
</g>
</svg>
